<svg xmlns="http://www.w3.org/2000/svg" width="728.931" height="790.849" viewBox="0 0 728.931 790.849"><g transform="translate(-6.424 -3.043)"><path d="M324.643,137.5l46.071-30.357,46.429,31.786L399.286,87.857l46.071-31.071-56.786.357L370.357,5.357,353.214,56.786H295.357l46.071,31.786Z" fill="#fbce1d" stroke="#000" stroke-width="1.5"/><path d="M338.214,120,370,97.857S403.214,121.428,402.857,120s-12.5-34.286-12.5-34.286l31.786-21.429L383.214,65,370.357,27.5,358.214,65l-38.571-.714L351.429,85Z" fill="#ed1a23" stroke="#000" stroke-width="1.5"/><path d="M526.289,751.008s-44.952,54.548-92.429,40.406-50.508-34.345-108.591-12.122-88.388,25.759-129.3-37.881c0,0-34.345,6.566-50.508-47.477,0,0-41.416-1.515-45.457-28.789s2.525-23.739-9.091-41.416-5.555-45.963-5.555-45.963L79.8,572.21s-31.82-2.525-35.86-27.274-2.02-23.991-14.142-39.9c-20.715-27.189-15.152-54.548-5.051-60.609l1.01-10.607S4.041,417.657,7.576,393.413s6.566-18.183,0-46.972C4.7,333.819,6.061,303,25.254,291.893c0,0,6.061-2.02,3.03-17.678s17.173-54.548,27.779-59.094c0,0,29.294-46.972,49.5-55.053s40.911-33.84,40.911-33.84,7.576-29.8,20.708-34.345c0,0,7.576-9.6,17.173-10.607,0,0,44.952-27.779,59.6-32.83S295.47,23.7,295.47,23.7L239.911,64.1l15.152-2.02-18.688,5.556s-43.437,39.9-46.467,46.972c0,0,25.254-11.617,27.274-12.627s6.061-6.061,6.061-6.061l-2.02,5.556,34.85-19.7-39.4,28.284s-10.1,12.122-9.6,15.657c0,0,47.477-34.85,60.609-38.386,0,0-83.843,53.538-98.49,81.822,0,0,69.7-56.569,100.51-65.155,0,0-66.67,38.386-91.419,64.65,0,0,16.667-2.02,20.708-7.071l-2.525,5.051s4.546-1.515,5.051-3.03,33.84-36.366,70.711-48.992c0,0-47.982,24.244-58.589,43.437,0,0,18.183-4.546,22.728-4.041,0,0,50-23.234,52.528-24.244S251.023,153,251.023,153l6.061,1.01L228.8,166.129h6.061l-11.617,4.041s-68.69,26.264-64.65,73.236l13.637-18.183,19.7,2.525s28.789-31.82,62.124-47.477l3.571-16.667,63.1-21.6,14.142,12.5s48.992-4.546,74.751,0l13.071-12,67.027,23.739.209,15.535s45.962,26.264,61.114,46.972l19.193-4.041,2.525,4.546v-7.576s-52.023-50.508-75.761-67.68l17.173,9.6s13.879.2,16.909.7-79.961-47.073-79.961-47.073l120.631,65-.242-11.619L456.423,102.3l116.838,63.773s2.02-3.979-3.03-10.04a21.93,21.93,0,0,1-5.26-12.1L464.8,77.313,563.16,137.34l-.505-9.6S521.239,105.52,515.683,103.5c0,0,36.365,12.122,47.982,19.7l-3.536-12.122c7.194,4.969-15.261-9.95-15.279-11.869l14.395,9.47-2.273-5.682s-5.43-7.071-17.046-12.627S497.5,63.6,497.5,63.6l37.881,16.162s-63.64-38.386-65.66-39.9,109.6,42.426,125.259,72.226,18.183,45.457,40.406,51.013,53.538,55.558,53.538,55.558,10.607,17.678,13.132,24.244,8.586,15.657,8.586,15.657,9.6,22.981,8.081,35.355h0s20.708,13.132,15.91,37.376-6.061,45.709-4.293,51.265,9.344,28.284-11.364,49.5c0,0-2.19,11.162-3.262,13.305,0,0,20.357,16.429,5.714,41.429s-21.786,32.5-23.929,47.857.357,33.929-40.357,37.143L653.214,575l3.571,1.071s5,16.429,1.071,28.214-13.571,25-14.286,41.786,3.929,42.857-48.214,47.857c0,0-2.778,44.872-69.068,57.079Z"/><path d="M470.747,126.779a2.661,2.661,0,1,1-2.661-2.661A2.661,2.661,0,0,1,470.747,126.779Z" stroke="#000" stroke-width="1" fill-rule="evenodd"/><path d="M484.052,134.036a2.9,2.9,0,1,1-2.9-2.9,2.9,2.9,0,0,1,2.9,2.9Z" stroke="#000" stroke-width="1" fill-rule="evenodd"/><path d="M498.324,140.567a3.87,3.87,0,1,1-3.87-3.871,3.871,3.871,0,0,1,3.87,3.871Z" stroke="#000" stroke-width="1" fill-rule="evenodd"/><path d="M510.419,148.308a3.87,3.87,0,1,1-3.87-3.87A3.87,3.87,0,0,1,510.419,148.308Z" stroke="#000" stroke-width="1" fill-rule="evenodd"/><path d="M523.724,155.686a4.233,4.233,0,1,1-4.233-4.233A4.233,4.233,0,0,1,523.724,155.686Z" stroke="#000" stroke-width="1" fill-rule="evenodd"/><path d="M538.964,164.516a4.354,4.354,0,1,1-4.354-4.354A4.354,4.354,0,0,1,538.964,164.516Z" stroke="#000" stroke-width="1" fill-rule="evenodd"/><path d="M552.269,170.926a4.475,4.475,0,1,1-4.475-4.475,4.475,4.475,0,0,1,4.475,4.475Z" stroke="#000" stroke-width="1" fill-rule="evenodd"/><path d="M479.214,113.232a3.145,3.145,0,1,1-3.145-3.145,3.145,3.145,0,0,1,3.145,3.145Z" stroke="#000" stroke-width="1" fill-rule="evenodd"/><path d="M494.454,121.215a3.387,3.387,0,1,1-3.387-3.387,3.387,3.387,0,0,1,3.387,3.387Z" transform="translate(-1.197)" stroke="#000" stroke-width="1" fill-rule="evenodd"/><path d="M509.452,128.23a4.354,4.354,0,1,1-4.354-4.354A4.354,4.354,0,0,1,509.452,128.23Z" transform="translate(-0.484 1.21)" stroke="#000" stroke-width="1" fill-rule="evenodd"/><path d="M522.273,136.576a4.233,4.233,0,1,1-4.233-4.233A4.233,4.233,0,0,1,522.273,136.576Z" stroke="#000" stroke-width="1" fill-rule="evenodd"/><path d="M533.642,142.865a3.991,3.991,0,1,1-3.991-3.991,3.991,3.991,0,0,1,3.991,3.991Z" transform="translate(0 0.684)" stroke="#000" stroke-width="1" fill-rule="evenodd"/><path d="M547.915,150.606a4.475,4.475,0,1,1-4.475-4.475,4.475,4.475,0,0,1,4.475,4.475Z" stroke="#000" stroke-width="1" fill-rule="evenodd"/><path d="M560.494,158.71a4.838,4.838,0,1,1-4.838-4.838A4.838,4.838,0,0,1,560.494,158.71Z" stroke="#000" stroke-width="1" fill-rule="evenodd"/><path d="M489.724,91.243a2.993,2.993,0,1,1-2.993-2.993,2.993,2.993,0,0,1,2.993,2.993Z" stroke="#000" stroke-width="1" fill-rule="evenodd"/><path d="M502.895,98.77a3.507,3.507,0,1,1-3.507-3.507,3.506,3.506,0,0,1,3.507,3.507Z" transform="translate(-0.171 0.513)" stroke="#000" stroke-width="1" fill-rule="evenodd"/><path d="M516.579,107.579a3.763,3.763,0,1,1-3.763-3.763A3.763,3.763,0,0,1,516.579,107.579Z" transform="translate(-0.171 0.171)" stroke="#000" stroke-width="1" fill-rule="evenodd"/><path d="M530.947,116.046a4.362,4.362,0,1,1-4.362-4.362,4.362,4.362,0,0,1,4.362,4.362Z" transform="translate(-0.513 0.342)" stroke="#000" stroke-width="1" fill-rule="evenodd"/><path d="M543.776,124.941a4.362,4.362,0,1,1-4.362-4.362A4.362,4.362,0,0,1,543.776,124.941Z" stroke="#000" stroke-width="1" fill-rule="evenodd"/><path d="M557.461,134.434a5.132,5.132,0,1,1-5.132-5.132A5.132,5.132,0,0,1,557.461,134.434Z" transform="translate(0.684 -1.197)" stroke="#000" stroke-width="1" fill-rule="evenodd"/><path d="M337.649,513.489l4.4-4.233a26.842,26.842,0,0,0,7.281-.847l3.387,3.387a35.456,35.456,0,0,1-15.071,1.693Zm-16.595,17.78,5.419-3.725s15.24,10.5,35.9-5.249c0,0,14.393,16.087,38.608,3.895l4.572,3.217s-20.828,15.579-43.518.169c0,0-16.933,16.425-40.978,1.693Zm-113.961,5.249s7.789,1.355,14.055-1.693C221.148,534.825,213.7,533.64,207.093,536.518Zm-4.233,16.764s13.885,3.387,27.771-7.789c0,0,19.3,17.1,42.5,1.016,0,0,24.723,17.611,45.212-1.355,0,0,22.521,19.643,43.518-.339,0,0,19.135,19.473,43.518,0,0,0,18.457,18.288,43.349,1.016,0,0,21.844,18.965,44.2-1.355,0,0,22.521,19.473,43.857.169l4.911,4.064s-22.86,23.876-48.6,3.725c0,0-22.691,17.611-44.2.677,0,0-18.627,16.256-43.349-.339,0,0-16.764,17.441-44.026,0,0,0-21.336,16.595-43.01,0,0,0-19.473,17.272-44.873,0,0,0-16.595,16.425-43.18,0,0,0-10.837,9.652-22.86,7.451a34.475,34.475,0,0,0-4.741-6.943Zm354.583-45.72a33.363,33.363,0,0,0,14.055-3.048l-.169,7.112s-13.716,5.757-24.723.169C546.606,511.8,555.072,509.086,557.443,507.562Zm2.032,23.2s-9.483,1.693-23.029-8.805c0,0-13.109,13.856-28.518,7.93l-7.947,3.556s19.023,10.528,36.3-3.866c0,0,5.08,5.927,18.119,7.281Zm-75.353,67.225,15.071-2.032-6.773-5.08s-2.2,3.725-8.3,7.112ZM453.811,601.2l11.176-1.863s-7.451-1.355-15.409-7.959c0,0-21.167,18.965-43.518-.169,0,0-22.521,19.643-44.365-.339,0,0-19.981,21-43.349-.169,0,0-16.425,20.151-43.857.847,0,0-9.991,6.1-11.176,6.265s7.451,2.371,12.361,1.016h0s6.435,2.879,7.62,2.879,26.247,2.032,26.247,2.032l8.975-5.588s17.78,17.441,43.518.847c0,0,16.933,15.748,43.857-.169,0,0,10.668,6.265,12.869,6.265s25.739-2.371,25.739-2.371l4.572-3.895Zm-223.858-5.249,7.112-.169-6.265-4.4-3.725,2.032Zm262.974-20.489c-23.707,17.272-43.857.339-43.857.339-24.384,16.933-44.2-.508-44.2-.508-20.659,16.764-42.672.847-42.672.847-24.045,15.917-43.857-.677-43.857-.677-26.247,16.933-43.857,0-43.857,0-24.045,17.611-44.2-.169-44.2-.169-5.419,5.757-16.933,7.789-16.933,7.789l-.508-6.773s10.329-.847,17.949-8.3c0,0,22.352,19.812,43.688.169,0,0,17.78,18.627,43.857-.169,0,0,15.071,19.981,43.688,0,0,0,17.949,19.135,43.688.169,0,0,22.013,18.8,43.18,0,0,0,18.627,18.119,44.026,0,0,0,14.732,12.7,30.311,7.62l.169,6.265s-14.055,4.741-30.48-6.6Z" fill="#fff"/><path d="M341.719,696.594a1.624,1.624,0,0,0-1.312,2.906,23.546,23.546,0,0,0,6.531,4.719c2.37-1.15,7.054-1.927,7.981-3.308-2.513-2.012-5.252-4.443-8.757-4.045A25.58,25.58,0,0,0,341.719,696.594Zm-68.406,1.219c-2.3-.174-4.372,2.5-2.594,4.469,5.692,6.689,14.351,10.282,22.077,14.307a70.225,70.225,0,0,0,8.079,3.537c5.136-1.738,10.267-3.491,15.406-5.219-12.789-6.395-25.552-13.455-39.5-16.844a13.114,13.114,0,0,0-3.469-.25Zm175.375.625c-4.45.564-7.967,3.982-12.122,5.6-47.409,24.074-98.4,41.125-149.816,54.183-19.087,4.65-38.422,9.066-57.875,12.281,13.458,6,28.795,3.935,42.938,1.875,32.711-5.735,64.139-17.028,95.105-28.833,32.057-12.5,63.572-26.378,94.52-41.354-3.87-2.139-8.224-3.977-12.75-3.75Zm-131.094.781c-3.423-.274-6.727,3.878-4.344,6.813,1.761,1.786,4.774,1.107,6.781,1.406,1.776,1.334,2.8,4.083,4.438,5,5.156-1.95,10.316-3.885,15.469-5.844-4.1-3.376-9.035-6.239-14.437-6.312a23.059,23.059,0,0,0-7.906-1.062Zm91.5,1.75c-51.26,20.13-103.545,38.509-157.64,49.15-13.253,2.348-26.639,4.809-40.141,4.663,7.072,7.917,18.777,8.714,28.812,8.628,25.4-.939,49.937-8.343,74.006-15.94,37.293-12.256,73.81-27.4,109.244-43.938-4.42-2.121-9.443-2.565-14.281-2.562Zm-52.5,2.844c-45.39,20.1-94.264,32.382-143.875,35.11q-6.637.277-13.281.234c9.76,9.8,24.728,10.466,37.81,9.914,28.068-1.853,55.1-10.38,81.549-19.477,20.228-7.139,40.121-15.259,59.609-24.218-7.267-.532-14.551-1.134-21.812-1.562Zm107.813,2.906c-53.506,29.713-111.551,50.612-170.625,66.375-14.157,3.585-28.5,7.136-42.906,9.938,11.675,5.693,25.277,3.6,37.679,1.815,31.825-5.834,62.317-17.259,92.365-29.058,25.958-10.536,51.726-21.682,76.862-33.976,4.079-2.507,9.61-5.712,9.406-11.187-.247-1.493-1.269-3.787-2.781-3.906Zm-192.375,4.844c-1.242,2.785-2.543,5.544-3.75,8.344,3.293,1.6,6.776,3.639,7.813,7.438,5.428-1.156,11.649-1.586,16-5.219.6-2.544-2.969-3.638-4.638-4.748a124,124,0,0,0-15.206-6.221l-.219.406Zm188.719,18.5c-3.665.445-8.754,1.948-9.562,6.031.8,3.855,6.022,3.646,8.909,5.3,17.823,5.915,36.723,11.01,55.673,8.647a35.375,35.375,0,0,0,14.511-5.287c-21.59-4.416-43.48-8.386-64.719-13.875A9.616,9.616,0,0,0,460.751,730.063Zm-30,9.5c-3.531-.242-6.907,3.049-5.687,6.688.917,3.768,5.635,3.721,8.464,5.437,19.505,7.606,40.227,13.936,61.408,12.694,8.125-.565,16.121-2.837,22.691-7.663-22.781-.79-46.027-2.809-67.4-11.1C444.047,743,437.72,739.456,430.751,739.563ZM407.625,752.75c-3.163-.348-6.955,2.61-5.062,5.875,2.512,4.189,8.2,4.793,12.31,6.961,23.4,8.938,49.15,14.759,74.159,9.82A83,83,0,0,0,500.438,772c-25.579-4.239-51.47-7.865-76.348-15.131-5.375-1.8-10.66-4.363-16.465-4.119Zm-21.719,9.969c-2.584.434-.6,3.433.594,4.313,8.87,8.412,21.435,11.183,32.954,14.082,17.145,3.575,34.749,6.064,52.293,5.017,4.964-.6-1.333-1.647-3.343-1.876-24.27-4.541-48.6-9.3-71.711-18.131C393.12,764.92,389.831,762.416,385.906,762.719Z" fill="#fbca0a"/><path d="M23.233,298.964s-18.9,15.841-13.089,41.853,4.145,38.166,1.2,47.773c-1.127,3.678-5.538,28.562,16.433,42.2s78.034,26.517,103.036,30.3,22.223,11.112,25.254,24.5h0s5.808-13.637.253-24.244-9.091-22.476-8.586-27.527,7.829-27.274-16.162-36.113-74.5-36.365-92.682-44.951S8.081,323.461,23.233,298.964Zm-.019,151.393S10.761,471.171,32.143,500c15.288,20.613,15,39.286,15,39.286S44.076,573.351,90,567.143c46.324-6.263,92.767-4.532,99.069-4.077,8.092.584,15.931,5.505,14.145,20.505l6.429,7.143s8.214-26.071-15.714-40.357-31.072-43.571-31.072-43.571,1.346-8.347-13.214-10.714c-43.929-7.143-127.857,9.643-126.429-45.714ZM93.929,584.643s-2.857,26.429,26.786,34.286A52.343,52.343,0,0,1,157.5,652.857,91.075,91.075,0,0,0,185.714,690C206.429,706.071,200,711.786,200,711.786s-.714-21.071-52.143-22.143-44.643-38.571-44.643-38.571,2.143-15.714-7.5-27.5-10-35-7.143-41.786ZM236.071,707.5s-40.714-16.786-71.786-71.786c0,0-8.744-27.648,34.812-35.413,0,0,27.622-4.189,87.331,4.341,72.5,10.357,195.714-2.5,195.714-2.5s104.643-16.429,93.214,28.929-70,76.786-70,76.786,6.786-13.929-24.643-14.643-215.357-1.429-231.071,1.071S236.428,702.5,236.071,707.5Zm306.334,4.135s-3.353-9.818,4.789-15.805,24.187-19.4,39.034-46.458,37.837-31.61,37.837-31.61,26.1-4.31,23.708-33.766c0,0,5.029-6.466,5.987-1.2s2.874,25.624-5.268,36.879-7.9,21.552-8.142,28.5,4.071,36.879-40.471,41.189-50.289,3.832-57.473,22.271Zm-6.492-127.026s-3.193-25.061,26.609-22.691,97.714,8.953,112.776,3.387c15.579-5.757,17.949-16.933,17.949-23.029s1.355-21.336,12.869-37.592,21.675-39.285,9.821-55.2l-3.387,6.1s6.773,28.109-26.755,32.512-90.085,7.451-90.085,7.451-17.272.339-17.949,9.144-7.112,27.093-30.141,45.381-18.288,35.415-17.949,37.108Zm50.316-95.842s0-25.739,13.208-27.093,91.1-14.9,111.76-27.771,18.627-35.56,18.627-35.56-7.112-18.288-.339-55.541-10.837-43.349-10.837-43.349,1.693,8.128,3.725,12.531,6.1,23.707-12.531,35.56-86.021,42.333-93.81,46.736-24.045,10.5-23.029,26.755.677,25.739-4.4,33.189S579.8,475.9,586.23,488.766Z" fill="#ed1a23"/><path d="M252.781,49.625c-19.032,7.933-34.316,22.791-47.053,38.663-.929,1.154-5.4,6.532-1.991,4.4,14.9-13.9,29.6-28.255,46.137-40.094,1.562-1.266,3.644-1.729,5-3.219a3.84,3.84,0,0,0-2.094.25Zm-36.937,21.25c-9.834.906-19.576,5.327-26.156,12.719,9.282-3.423,17.919-8.641,27.375-11.812.246-.951-.472-1.026-1.219-.906ZM186.031,84.063c-10.771,1.8-17.527,11.678-22.594,20.563-11.609,21.205-16.511,45.4-22.812,68.563-5.675,19.565-11.361,39.194-18.525,58.265-2.857,8.086-10.282,12.939-16.693,17.891.375-.584,3.087-3.707,4.25-5.344,7.277-9.533,12.847-20.509,14.813-32.406,6.924-26.962,15.81-53.549,24.469-80.062-5.779.111-9.129,5.9-11.531,10.469-7.87,16.367-8.079,35.053-12.834,52.408-5.217,21.749-13.207,43.3-26.376,61.538.507,1.46,3.814-3.01,5.119-4.218.9-1.011-1.016,1.747-.91,2.459-1.2,5.272,2.254,10.147,6.031,13.406-2.074-7.184,3.874-13.324,7.621-18.831,6.311-8.062,12.912-16.208,15.7-26.244,10.8-32.267,17.769-65.691,28.456-97.985,5.813-15.42,14.527-30.522,27.6-40.659l-1.781.188Zm13.281,4.313c-14,1.574-24.562,13.032-30.637,25.037-7.6,14.713-9.916,31.421-14.635,47.175-5.041,17.847-9.364,36.012-16.415,53.194-6.114,10-9.181,21.533-13.353,32.428-4.065,7.265-8.805,14.714-9.616,23.166-.374,3.145,2.637,4.975,5.531,4.531,3.291.521,6.674-1.481,6.776-5.039.755-5.638.625-11.885,1.8-17.664,1.457-8.567,3.854-17.758,10.514-23.765,8.044-11.372,11.615-25.182,15.579-38.385,4.045-14.65,6.5-29.659,11.944-43.933,7.543-20.9,17.8-41.773,34.477-56.775-.656.02-1.315-.039-1.969.031Zm.594,27.063c-8.338,2.043-18,5.039-22.437,12.969a12.171,12.171,0,0,0-1.125,7.313c7.669-7.488,15.628-14.673,24.867-20.076.824-.405-1.119-.244-1.3-.2Zm1.813,3.844c-9.072,7.366-18.128,15.335-28.562,20.469-1.865,3.67-.935,8.187-.531,12.156,10.635-8.338,21.756-16.968,28.531-28.875.424-1.11,3.6-7.249.563-3.75ZM111.25,164c-10.22,3.631-19.332,10.64-27.328,18-8.691,8.156-15.828,18.211-19.359,29.684,15.818-14.559,31.9-28.954,46.665-44.539.531-.532,3.375-3.66.022-3.148Zm10.813,2.156c-10.075,7.3-19.349,16.186-26.219,26.656-1.9,2.442-2.427,5.924.577,2,8.659-9.433,17.758-18.97,26.3-28.188.1-.812.011-.768-.656-.469Zm95.969.125c-27.64,8.851-50.423,28.739-67.916,51.391-.994,1.127-4.353,6.014-1.154,3.552,19.007-17.2,38.1-34.354,59.445-48.568,3.74-2.684,8.109-4.274,11.906-6.562a3.237,3.237,0,0,0-2.281.188Zm-25.781,3.875c-6,.256-10.4,5.487-11.281,11.156,4.766-4.1,9.619-9.063,16.032-10.046,1.821-.784-2.539-1.208-3.751-1.142a8.043,8.043,0,0,0-1,.031ZM179.875,174.5c-5.366,2.138-10.833,4.489-16.594,4.688-2.873,2.579-1.588,7.283-1.469,10.75.351,3.028,4.013-2.673,5.808-3.457,4.522-4.148,9.507-7.85,13.724-12.293l-1.469.313Zm-60.969,6.625c-25.1,18.443-44.874,42.968-63.892,67.417-4.546,5.52-8.385,11.827-13.358,16.8-4.049,3.138-5.826,8.676-9.312,12.406-2.415,9.915-2.251,20.406-3.016,30.59-.56,11.59-1.025,23.185-1.3,34.785,3.676,3.126,7.38,6.22,11.031,9.375-2.941-20.071-5.017-41.2.875-60.875a31.977,31.977,0,0,1,10.555-15.848q33.885-33.147,67.757-66.309c-1.985-9.615.227-19.508,1.656-29.062l-1,.719ZM87.188,200.75c-21,7.943-35.922,26.311-46.436,45.509-2.593,5.306-5.743,10.426-7.189,16.178,10.632-11.849,20.688-24.263,31.3-36.144,7.757-8.855,15.726-17.692,23.884-25.95l-1.562.406Zm61.375,34.563c-11.768,20.853-18.44,44.246-23.062,67.625a358.123,358.123,0,0,0-6,68.594c2.633.422,5.3.592,5.093-2.717,4.175-20.023,7.232-40.408,14.215-59.654,2.218-5.625,7.561-11.013,5.38-17.5-1.187-3.527-5.027-5.688-5.25-9.656-1.236-4.046,1.576-7.251,4.25-9.812,6.573-9.081,6.252-21.131,6.425-31.937-.406-1.123.671-9.119-1.05-4.938ZM80.469,252.25c-9.9,1.945-15.364,11.974-17.5,21.079a104.281,104.281,0,0,0-1.537,37.514c1.724-3.855,2.978-9.295,4.525-13.746,4.891-15.092,9.4-30.355,15.446-45.034l-.49.1Zm8.75,8.281c5.277,11.446,17.116,19.832,30,19.281,1.412.049,5.046-.3,4.831-.946-6.221-1.326-11.174-6-15.174-10.46A28.366,28.366,0,0,1,89,259.25l.219,1.281Zm3.313,17.125c-1.2,18.157-6.141,35.729-12.126,52.795.685.57,2.366-2.354,3.188-3.607,8.433-14.8,10.547-32.351,9.938-49.187-.581-1.337-.33-1.4-1,0ZM49.625,287.938c-7.569,2.787-9.217,11.982-9.25,19.156.2,17.617,5.523,34.645,11.375,51.094,2.661,1.4,5.313,2.812,7.969,4.219-6.247-24.316-7.967-49.677-9.437-74.719l-.467.178ZM113,289.188c-9.209,13.719-14.832,30.282-13.844,46.938,1.193,2.947,1.47-4.191,2.125-5.719,2.979-13.427,5.65-27.11,11.844-39.469.594-.723,1.636-3.366-.125-1.75ZM88.781,337.563c-5.929,1.791-12.251,1.025-18.219-.156,7.644,6.227,16.408,11.908,26.313,13.313,1.83-1.5,5.356-2.634,5.125-5.375-2.138-1.389-5.38.056-7.656-1.312-2.8-1.023-4.453-3.852-5.062-6.656l-.468.176-.032.012Zm-18.312,5.406c-4.1.808-3.234,6.073-2.3,9.051,1,5.533,1.438,11.148,2.083,16.73,2.427-5.682,1.7-12.154,2.434-18.187.035-2.624,3.539,2.024,5.222,2.187a38.411,38.411,0,0,0,18.531,5.281c1.448,5.51-2.056,10.771-5.187,14.969,6.721-2.418,10.537-10.652,9.031-17.437-1.105-4.137-6.181-3.009-9.183-4.811-6.618-2.378-12.59-6.929-19.692-7.846a3.539,3.539,0,0,0-.937.063ZM30.031,435.938c1.417,18.185,7.2,36.641,19.781,50.125,4.256.624,1.057-2.689.3-4.8-6-13.105-12.549-26.635-13.9-41.2.617-3.183-4.028-3.159-5.916-4.817-.714-.667-.194.442-.272.692Zm11,5.875c-1.176,1.034,1.169,4.555,1.3,6.523,4.343,13.224,8.189,27,15.73,38.758,1.647,2.771,5.913,2.961,8.5,1.344-7.043-14.957-14.557-29.714-20.344-45.25.148-2.884-3.3-.928-5.187-1.375Zm21.156,6.437c-4.041-.272-1.776,3.376-1.406,5.75,3.457,12.616,6.969,25.678,14.313,36.688,3-.106,6-.293,9-.406a274.2,274.2,0,0,1-21.469-42.125l-.437.094Zm9.5,4.219c2.028,6.479,4.126,12.939,6.375,19.344,1.739-1,7.6.432,6.017-2.57-2.1-5.423-3.5-11.288-6.08-16.429a25.184,25.184,0,0,0-6.531-1.063l.146.478Zm18.094,2.906c-1.632-.1-3.263,1.181-2.046,2.855,1.559,4.443,2.431,9.3,4.89,13.333,2.009-.528,7.767,1.206,5.018-2.232a111.062,111.062,0,0,1-5.893-13.737,3.47,3.47,0,0,0-1.969-.219Zm14.75,2.844c-2.523-.423-2.471,1.357-1.7,3.322.859,3.348,1.3,7.1,3.387,9.9,1.781-.818,8.252.714,5.86-2.2a103.991,103.991,0,0,1-5.673-10.642,2.38,2.38,0,0,0-1.875-.375Zm14.188,2.531c-1.8.808-8.248-.807-6,2.092a37.23,37.23,0,0,1,4.692,13.064,31.58,31.58,0,0,1,3.531,16.344c3.407.256,6.812.555,10.219.813-4.5-10.071-9.827-20.2-11.844-31.094C119.048,461.626,119.691,460.266,118.719,460.75Zm6.5,1.156c-2.979.83-1,4.563-.717,6.538,2.04,8.843,4.661,18.081,10.248,25.275,1.815.261,5.9.88,5.563-2a297.425,297.425,0,0,1-12.531-29.031,3.267,3.267,0,0,0-2.562-.781ZM138.5,466.75c-2.119,10.675,4.312,20.932,11.51,28.229,3.14,2.785-.3-2.84-.958-4.2-3.586-7.576-7.946-15-9.614-23.275-.322-1.149.627-4.258-.937-.75Zm-60.094,7.156c7.892,4.382,17.734,4.758,26.437,2.656,2.148-.747,4.565-1.212,6.438-2.656-10.605.288-21.307.976-31.9-.083l-.5.042Zm35.187,3.875c-1.337.209-3.684,2.783-1.281,2.906,1.245.49,4.869,1.4,4.375-1A3.01,3.01,0,0,0,113.594,477.781Zm-15.437.875c-2.377.112-4.072,1.893-5.5,3.625,2.917-.876,6.527-.988,9.156-1.906C102.081,478.863,99.264,478.564,98.156,478.656Zm18.875,5.125c-3.113.937-4.337,6.1-.75,7.313,2.189,1.13,1.914.673,1.594-1.375-.286-1.8,1.216-4.824-.687-5.969l-.156.031Zm-15.906,1.313c-2.517.74-1.865,4.922-.844,6.313,1.815-.168,5.08,1.169,6.125-.781C105.651,488.4,104.179,484.25,101.125,485.094Zm60,79.719c2.008,9.023,8.56,17.229,17.688,19.813-5.484-6.65-11.915-12.752-16.656-19.875-.552-.769-1.331-1.637-1.031.063Zm23.781-.281c-.418,2.472,1.79,5.02,2.672,7.348,4.436,8.354,9.592,16.6,17.016,22.589-2.6-6.55-7.111-12.21-10.706-18.221-2.688-3.985-5.111-8.337-8.294-11.873-.214.077-.593-.165-.687.156Zm-47.969,1.875c1.992,3.611,3.538,8.023,7,10.344,1.8-.469,8.544,1.264,5.018-1.587-2.966-3.1-5.7-6.7-8.8-9.507-.717.343-4.607-.76-3.219.75Zm15.375,0c-.628,3.279,2.136,6.7,4.438,8.969a21.76,21.76,0,0,0,8.5,4.844c-3.971-4.69-8.8-9.087-12.437-13.969-.176.032-.438-.114-.5.156Zm-28.687,1.813c7.843,8.724,17.773,15.816,29.125,19.188,5.927,2.477,11.8,5.782,15.906,10.813,2.607-3.05-.551-7.1-3.312-8.719-6.56-4.216-14.775-5.2-21.341-9.614a87.177,87.177,0,0,1-16.222-12.479c-.659.4-6.554-.87-4.156.813Zm52.813.25c3.116,7.425,7.216,14.68,8.75,22.594,4.207,1.175,7.536,4.457,10.125,7.719,3.972-.461,4.987-1.857,1.721-4.658-6.583-8.793-13.421-17.431-19.814-26.342-.605.119-1.529-.419-.781.688Zm-66.156-.031c-1.6.678-7.948-.02-6.281,1.625,10.662,9.106,21.328,18.418,32.312,27,3.914,5.393,7.613,13.123,15.031,13.594,3.357.221,7.108-1.717,7.063-5.406-.182-6.633-6.941-10.1-12.094-12.969-13.107-5.768-26.494-12.845-35.75-23.875l-.281.031ZM92.031,571.5c8.3,10.193,17.607,20.662,30.344,25.094,7.376,3.658,13.281,9.6,18.564,15.552,1.489-.335-2.04-4-2.868-5.449-6.266-8.277-14.025-16.027-23.884-19.6-8.2-4.272-15.1-10.335-21.854-16.474-1.06-.839-.454.289-.3.88ZM183,596.031c-5.831,4.007-12.815,6.827-18.75,10.75-4.211,4.3-9.82,6.862-15.531,8.781.251,4.827,5.964,6.1,9.875,6.719,1.8-.09,5.23,1.617,5.009-1.208,2.073-8.987,10.865-14.174,18.671-17.954a59.9,59.9,0,0,1,6.758-2.619c-1.691-1.637-3.433-4.512-6.031-4.469Zm400.233,26.894s55.154-32.173,65.314-48.139C648.547,574.786,607.665,607.927,583.233,622.925Zm4.6-12.821s47.655-30,49.349-36.286H617.825s-24.674,32.173-30,36.286Zm5.564-15.24s17.9-10.644,18.869-24.432l-13.789-.726S591.7,578.657,593.393,594.864Zm-6.531,5.564c0-2.661,1.21-22.981,5.564-30.238l-8.467-.484s-10.4,17.175-25.4,29.271c0,0,7.983,17.659,28.3,1.451Zm-31.206-4.354s20.32-19.11,22.013-26.851l-11.128-.968s-5.322,15-17.659,21.046c.484,2.177,6.773,6.773,6.773,6.773Zm-19.594.242s8.225,3.87,8.225-6.773,1.693-17.417,6.773-23.707c0,0-11.611-.968-15,30.48Zm15.482-14.756,12.821-15.724S547.431,567.045,551.544,581.559Z" fill="#088740"/><path d="M149.91,693.914s6.466,22.031,17.242,30.892c0,0,6.945-10.537,16.763-10.537s16.524-3.832,8.142-10.776-26.342-11.255-42.147-9.579Zm19.637,33.766s6.466,9.818,20.595,9.579,34.005-2.395,41.668-1.2,37.837-6.466,32.568-18.679-21.074-7.424-21.074-7.424-7.184,3.113-23.947-7.663-33.287-31.371-42.626-45.021-17.482-26.581-31.131-34.724-46.7-34.724-46.7-34.724-3.832,17.242,16.524,25.624S151.826,635,155.9,643.146s12.453,31.371,33.047,47.655,13.889,26.342,4.55,26.342-21.313-.479-23.947,10.537Zm405.338-2.355s-4.572-11.007-12.7-12.023-18.457,0-14.9-8.636,33.867-12.7,44.026-11.345c-1.355,14.9-16.425,32-16.425,32Zm-1.693.847s-5.927,15.748-46.228,8.3c0,0-32.681,4.911-47.244-11.515s22.013-13.885,22.013-13.885,17.3,4.079,59.774-45.889c47.012-55.313,81.618-76.538,81.618-76.538s4.408,11.723-3.255,18.668-33.766,10.776-45.739,28.018-23.354,42.94-37.837,53.163c-16.284,11.495-23.947,24.187-10.776,28.976s16.311-6.609,27.673,10.7Z" fill="#b70f15"/><path d="M180.17,532.116s-9.144-9.821-11.515-19.981-3.048-14.224-11.853-17.949h0s11.853-14.224,4.064-30.48-10.837-25.061-9.821-33.867,5.08-22.352-19.3-37.931c0,0-2.032-12.869-.677-13.547a15.406,15.406,0,0,1,3.725-1.016s4.064-48.768,22.691-80.264l-10.16-13.547,29.464-45.042,17.949,3.048s37.253-39.624,71.8-53.509l2.535-16.536,47.587-16.653L330.2,167.373s47.074-8.467,82.973.677l12.869-13.208,51.138,17.611v17.272S518.5,207.675,545.929,241.2l18.288-2.371,31.5,44.7-10.5,13.208s20.32,43.01,22.691,81.957l12.531,5.419.339,4.064s-32.173,10.16-31.5,30.48-2.371,29.8-6.1,37.931-4.741,22.352-4.741,22.352-25.061,7.112-28.448,10.16c0,0-8.467-13.208-26.755-19.643,0,0-4.064-9.483-14.563-10.837,0,0-2.709-16.256-26.077-20.659,0,0-7.112-10.837-19.3-14.9,0,0-5.419-37.592-7.789-40.3,0,0-38.269-14.224-90.762-.339,0,0-24.045-6.773-35.221-3.725s-116.5,121.242-116.5,121.242L183.9,511.8l7.789,17.272Z" fill="#fbca0a"/><path d="M365.435,470.965l.239-85.492s38.076-11.974,77.589-2.155l5.029,80.7s-48.134-13.171-82.858,6.945Zm97.465,7.9s-2.395-69.208-10.776-92.2l-5.268-2.155,4.071,80.942Zm-94.592-5.987s25.624-17.242,79.744-6.466l13.65,14.608s-62.5.479-79.984,2.634Zm-17.841,11.135L364.6,473.839l13.41,10.3s-10.656,6.466-15.685,5.508-11.854-5.628-11.854-5.628Zm-4.67-.359L361.6,473.12s-24.905-17.242-81.421-6.705L268.688,480.3S333.346,481.262,345.8,483.657Zm-79.026-6.226.479-32.568,12.692-9.579-1.2,29.455Zm15.805-43.584-1.2,30.173s48.852-12.931,81.66,7.424v-86.21s-74-27.539-80.463,48.613Z" fill="#fff"/><path d="M350.827,488.207a130.211,130.211,0,0,0-24.666-2.155c-12.692.239-63.7-1.916-63.7-1.916l.479-33.047-48.374,50.529-27.779,11.255,6.945,14.847,18.2-5.508-2.874-5.987s20.595-3.113,26.821-4.311c0,0,37.118,17.96,56.037,19.4,0,0,7.663-13.171,17.242-14.368,0,0,4.071-6.466,9.339-7.424,0,0-.479-9.339,7.663-11.734s10.537-8.621,10.537-8.621,6.705.479,7.9,1.676c0,0,4.789-2.634,6.226-2.634Zm16.524,5.508,3.832,3.832s9.1-4.789,19.637,3.592c0,0,13.41,2.155,17.482,8.382,0,0,15.566-.718,22.271,10.3,0,0,12.213-1.916,16.524,3.592s9.818,7.9,17.721,7.663,11.255-1.916,12.453-4.071,9.579-6.705,13.65-6.226,10.537-8.142,10.537-8.142,4.311-8.142,17.721-8.382,17.96-8.861,17.96-8.861,0-1.916,10.058-6.226c0,0-8.142-11.734-27.3-17,0,0,1.437-7.424-12.453-11.255,0,0-.718-14.368-26.582-20.834,0,0-6.226-10.058-16.524-14.129l2.395,58.192-87.408,3.353s-5.747,4.789-11.974,6.226Z" fill="#09a04b"/><path d="M189.653,540.921s30.141-17.272,66.04-3.387,44.365,13.208,57.912.677l-5.419-5.757,5.419,5.757s-1.693-3.048-7.112-5.757c0,0,17.272,2.032,27.432-15.579s20.659-10.16,20.659-10.16,3.725,8.128,20.659,7.112h0a39.234,39.234,0,0,0,18.288,7.451c10.837,1.355,16.933,5.757,16.933,5.757s7.451,11.176,28.109,9.821c0,0,8.805,12.869,31.835,6.1,0,0,12.531-.339,27.771-11.176,0,0,25.4-9.483,29.125-9.483s7.451-14.224,48.429-19.981c0,0,1.355-5.08,8.467-7.451l-5.08-13.208s-38.946,12.869-40.979,15.24-10.5,8.805-12.531,8.805-17.272,0-22.691,8.128-7.451,7.789-12.192,8.467-9.483,3.387-14.224,8.467h0s-15.579,4.741-22.691,1.016-6.435-10.5-25.061-8.805c0,0-1.016-10.5-21.675-10.5,0,0-1.693-7.112-18.627-9.144,0,0-6.773-6.773-18.288-3.048,0,0-10.837-13.547-25.061-5.757-1.693-1.016-6.773-2.032-8.128.339,0,0-5.757,4.4-7.112,5.757s-6.435-3.387-8.805,10.5c0,0-8.805,4.4-9.483,7.451,0,0-11.176,5.08-12.869,9.821s-6.1,6.435-11.176,4.741-37.592-9.483-51.139-18.965l-24.045,4.064,3.725,5.08-33.867,10.5a51.028,51.028,0,0,0,7.451,7.112Z" fill="#919191"/><path d="M536.107,518.23l5.249-3.895s12.192,8.467,25.569,3.556l-3.725,7.281A40.3,40.3,0,0,1,536.107,518.23Zm8.975,28.448,4.741-5.08s-9.821-4.572-13.377-7.959c-.339.508-15.071,17.611-40.47,2.2,0,0-23.876,12.023-34.036,10.668,0,0,14.055,6.435,30.988-5.419,0,0,23.029,17.441,43.857-.339,0,0,1.863,2.371,8.3,5.927ZM330.368,523.987l3.556-5.08s11.007,3.048,23.707-4.741c0,0,5.419,2.879,14.393,1.863,0,0,5.927,5.08,18.627,7.62,0,0-11.684,5.927-28.448-4.911,0,0-11.515,9.991-31.835,5.249Zm-26.077,22.86s7.789-4.841,8.3-5.687,3.048-4.3,3.048-4.3l3.217-2.709s14.732,17.1,42.841,0c0,0,18.457,18.288,44.2-.508,0,0,15.24,12.531,32.173,6.943l4.741,4.4s-13.885,9.652-37.253-3.725c0,0-18.627,16.425-44.026,0,0,0-18.288,16.425-43.349-.339a34.369,34.369,0,0,1-13.885,5.927Zm-114.3-3.895,6.435-3.217s16.933,8.467,34.205-6.1c0,0,13.377,11.515,29.8,7.789l8.805,3.387a39.225,39.225,0,0,1-38.608-3.725s-18.457,16.087-40.64,1.863Zm20.659,22.183a43.52,43.52,0,0,0,19.812-8.128s18.8,19.135,44.2,0c0,0,17.1,18.965,44.2-.339,0,0,17.611,17.949,42.841.339,0,0,16.933,17.441,44.026.169,0,0,20.32,18.288,43.349-.169,0,0,18.119,17.611,43.857-.169a34.3,34.3,0,0,0,34.036,5.927l-1.524,8.3s-15.24,4.064-33.02-6.943c0,0-14.563,17.78-43.688.339,0,0-16.256,16.425-43.518-.169,0,0-17.441,17.1-44.2.169,0,0-14.563,17.441-43.18-.169,0,0-19.3,16.256-43.857-.169,0,0-16.425,17.441-43.518.169,0,0-9.821,7.451-18.119,7.451Zm304.8,23.537c-12.023-1.693-22.183-8.636-22.183-8.636-27.432,18.119-43.518-.169-43.518-.169-23.537,18.288-43.857.508-43.857.508-25.739,18.8-43.857-.339-43.857-.339-21,17.78-43.518.508-43.518.508-24.384,17.78-43.688-.508-43.688-.508-23.876,17.441-44.2,0-44.2,0-6.943,5.08-11.684,6.6-11.684,6.6l5.08,4.741s5.08-2.709,6.1-4.741c0,0,18.457,17.611,44.365.677,0,0,17.441,16.933,43.688-.508,0,0,18.8,16.256,44.026.508,0,0,19.812,17.611,43.349-.169,0,0,18.8,16.256,43.857,0,0,0,21.336,15.748,44.026,0a40.507,40.507,0,0,0,16.425,6.6Z" fill="#117fcf"/><path d="M651.026,259.987c0,3.5-5.169,6.329-11.546,6.329s-11.546-2.834-11.546-6.329,5.169-6.329,11.546-6.329,11.546,2.834,11.546,6.329Z" transform="matrix(0.861, -0.508, 0.508, 0.861, -45.803, 357.174)" fill="#fbce1d" stroke="#fbce1d" stroke-width="1" fill-rule="evenodd"/><path d="M768.828,307.031c0,4.128-6.1,7.474-13.635,7.474s-13.635-3.346-13.635-7.474,6.1-7.474,13.635-7.474,13.635,3.346,13.635,7.474Z" transform="matrix(0.861, -0.508, 0.508, 0.861, -161.999, 391.348)" fill="#fbce1d" stroke="#fbce1d" stroke-width="1.181" fill-rule="evenodd"/><path d="M662.61,282.027c2.222,3.611-1.548,9.689-8.419,13.576s-14.242,4.109-16.464.5,1.548-9.69,8.419-13.576,14.242-4.109,16.464-.5Z" fill="#fbce1d" stroke="#fbce1d" stroke-width="1" fill-rule="evenodd"/><path d="M670.868,300.5c1.909,3.925-2.1,10.058-8.948,13.7s-13.952,3.409-15.861-.516,2.1-10.058,8.948-13.7,13.952-3.409,15.861.516Z" fill="#fbce1d" stroke="#fbce1d" stroke-width="1" fill-rule="evenodd"/><path d="M640,237.668c1.665,2.778-1.16,7.452-6.312,10.441s-10.678,3.16-12.343.383,1.16-7.452,6.312-10.441S638.335,234.89,640,237.668Z" fill="#fbce1d" stroke="#fbce1d" stroke-width="1" fill-rule="evenodd"/><path d="M630.906,226.433c1.63,2.383-.573,6.724-4.92,9.7s-9.192,3.451-10.822,1.069.573-6.724,4.92-9.7,9.192-3.451,10.822-1.069Z" fill="#fbce1d" stroke="#fbce1d" stroke-width="0.826" fill-rule="evenodd"/><path d="M623.726,216.059c1.224,2.133-1.133,6.219-5.265,9.126s-8.475,3.535-9.7,1.4,1.133-6.219,5.265-9.126S622.5,213.926,623.726,216.059Z" fill="#fbce1d" stroke="#fbce1d" stroke-width="0.745" fill-rule="evenodd"/><path d="M617.533,206.054c1.294,1.674-.593,5.273-4.215,8.038s-7.608,3.65-8.9,1.976.593-5.273,4.215-8.038,7.608-3.65,8.9-1.976Z" fill="#fbce1d" stroke="#fbce1d" stroke-width="1" fill-rule="evenodd"/><path d="M660.434,335.592s3.592-14.539,13-18.645c0,0-16.934,0-21.553,10.434s8.553,8.211,8.553,8.211Zm-9.921,37.118s2.224-10.263,1.2-10.605a8.942,8.942,0,0,0-8.211,3.079c-2.908,3.421-5.132,14.539.513,12.316s6.5-4.789,6.5-4.789ZM634.263,382.8l-1.539-10.776s-5.816,1.368-6.158,7.355S632.381,385.368,634.263,382.8Zm-2.395-12.829-2.395-12.658s-5.009,3.6-4.618,9.066c.171,2.395,1.711,6.329,3.763,5.645a8.053,8.053,0,0,0,3.25-2.053Zm-3.079-16.763-2.224-12.145s-6.158,7.355-5.132,11.632,5.132,5.3,7.355.513ZM625.368,337.3,623.487,326.7s-6.671,4.789-3.934,9.75,5.816.855,5.816.855Zm-3.079-15.395L619.552,311.3s-5.816,4.447-4.618,9.921,7.355.684,7.355.684Zm-4.276-13.171L615.105,298.3s-5.132,5.816-3.592,10.263,6.5.171,6.5.171ZM613.737,294.2l-4.789-9.75s-5.987,7.013-2.737,11.632S613.737,294.2,613.737,294.2Zm-6.5-14.882-4.618-8.724s-4.276,5.987-1.368,9.921S607.237,279.316,607.237,279.316Zm-5.987-12.658-4.276-8.039s-3.592,7.184-1.711,10.605,5.987-2.566,5.987-2.566Zm87.237,46.355-3.421-9.408s-4.447,3.421-3.934,7.355,7.355,2.053,7.355,2.053Zm-4.447-14.539-5.645-9.75s-7.013,5.3-4.618,9.237,10.263.513,10.263.513Zm-8.724-17.105-2.908-4.105-.513-5.132s-7.013,5.132-4.105,7.7,7.526,1.539,7.526,1.539ZM671.724,265.8l.342-11.29s-12.658,5.3-10.434,9.579,10.092,1.711,10.092,1.711Zm1.026-20.355.171-6.671s-9.75-2.566-15.053,1.368-3.421,9.408,2.737,9.066,12.145-3.763,12.145-3.763Z" fill="#fbce1d" stroke="#fbce1d" stroke-width="1"/><path d="M648.834,345.357c2.591,2.167,2.569,7.25-.048,11.353s-6.839,5.671-9.429,3.5-2.569-7.25.048-11.353,6.839-5.671,9.429-3.5Z" fill="#fbce1d" stroke="#fbce1d" stroke-width="1" fill-rule="evenodd"/><path d="M644.472,329.363c2.591,2.167,2.569,7.25-.048,11.353s-6.839,5.671-9.429,3.5-2.569-7.25.048-11.353,6.839-5.671,9.429-3.5Z" fill="#fbce1d" stroke="#fbce1d" stroke-width="1" fill-rule="evenodd"/><path d="M639.26,313.729c2.5,2.063,2.478,6.9-.046,10.8s-6.6,5.4-9.1,3.334-2.478-6.9.046-10.8,6.6-5.4,9.1-3.334Z" fill="#fbce1d" stroke="#fbce1d" stroke-width="1" fill-rule="evenodd"/><path d="M633.359,297.934c2.406,1.979,2.386,6.62-.045,10.366s-6.352,5.178-8.759,3.2-2.386-6.62.045-10.366,6.352-5.178,8.759-3.2Z" fill="#fbce1d" stroke="#fbce1d" stroke-width="1" fill-rule="evenodd"/><path d="M627.035,281.167c2.032,1.731,2.016,5.789-.038,9.065s-5.365,4.528-7.4,2.8-2.016-5.789.038-9.065S625,279.436,627.035,281.167Z" fill="#fbce1d" stroke="#fbce1d" stroke-width="1" fill-rule="evenodd"/><path d="M620.584,267.393c1.827,1.307,1.811,4.373-.034,6.847s-4.822,3.42-6.648,2.113-1.811-4.373.034-6.847,4.822-3.42,6.648-2.113Z" fill="#fbce1d" stroke="#fbce1d" stroke-width="1" fill-rule="evenodd"/><path d="M615.609,253.824c2.192,1.748,2.174,5.848-.041,9.158s-5.786,4.574-7.978,2.826-2.174-5.848.041-9.158,5.786-4.575,7.978-2.826Z" fill="#fbce1d" stroke="#fbce1d" stroke-width="1" fill-rule="evenodd"/><path d="M610.123,241.062c2.233,1.555,2.214,5.2-.041,8.144s-5.894,4.068-8.127,2.513-2.214-5.2.042-8.144,5.894-4.068,8.127-2.513Z" fill="#fbce1d" stroke="#fbce1d" stroke-width="1" fill-rule="evenodd"/><path d="M602.856,232.437c2.141,1.45,2.124,4.85-.04,7.595s-5.653,3.794-7.794,2.344-2.123-4.85.04-7.595,5.653-3.794,7.794-2.344Z" fill="#fbce1d" stroke="#fbce1d" stroke-width="1" fill-rule="evenodd"/><path d="M635.522,198.4c2.416,1.125,2.4,3.764-.045,5.894s-6.379,2.944-8.795,1.819-2.4-3.764.045-5.894,6.379-2.944,8.795-1.819Z" fill="#fbce1d" stroke="#fbce1d" stroke-width="1" fill-rule="evenodd"/><path d="M645.85,208.991c.328,2.184-2.719,4.692-6.805,5.6s-7.666-.123-7.994-2.306,2.719-4.692,6.805-5.6,7.666.123,7.994,2.306Z" fill="#fbce1d" stroke="#fbce1d" stroke-width="1" fill-rule="evenodd"/><path d="M653.632,220.139c-.083,2.253-3.5,4.518-7.63,5.058s-7.411-.849-7.328-3.1,3.5-4.518,7.63-5.058,7.411.849,7.328,3.1Z" fill="#fbce1d" stroke="#fbce1d" stroke-width="1" fill-rule="evenodd"/><path d="M663.1,229.856c-.029,2.29-3.923,4.9-8.7,5.833s-8.624-.17-8.6-2.459,3.923-4.9,8.7-5.833,8.624.17,8.6,2.459Z" fill="#fbce1d" stroke="#fbce1d" stroke-width="1" fill-rule="evenodd"/><path d="M532.219,72.406c3.151,2.651,7.508,3.789,10.938,6.219,26.12,15.063,44.284,41.362,52.923,70.117a149.8,149.8,0,0,1,5.89,29.914c6.747,7.055,13.269,14.336,20.156,21.25-1.54-8.625-2.163-17.531-5.437-25.75-2.09-5.521-5.125-11.075-10.062-14.437,2.444.262,6.107,1.556,4.295-2.112-7.948-32.6-31.3-60.195-60.165-76.608-5.8-3.179-11.686-6.535-17.911-8.61l-.5.014-.125,0ZM535.25,84.5c4.8,3.333,10.391,5.738,15.13,9.325,10.214,7.4,19.792,16.16,25.526,27.612,4.67,16.8,6.814,34.34,9.659,51.58,1.335,8.551,2.467,17.184,3.809,25.7q5.327,6,10.656,12c-1.113-12.536-1.981-25.484-6.844-37.187-2.248-1.826,1.588-3.125.144-5.246-3.747-16.625-7.229-33.4-11.628-49.818-4.917-12.559-16.964-20.437-28.392-26.655-5.588-2.8-11.31-5.711-17.344-7.331l-.5.013Zm27.406,27.844c1.257,5.728,1.91,11.812.476,17.468.688,9.633,5.714,18.307,10.242,26.594,2.016,5.447,3.352,12.125.156,17.406-2.283,10.578-1.4,21.673-1.342,32.468-.449,3.116.47,5.606,3.184,7.315,4.35,4.233,8.739,8.428,13.065,12.686-.828-10.275-1.4-20.686-2.406-30.875-2.455-2.908-4.793-5.942-7.5-8.594,1.844-.044,6.321,3.63,6.156.781-1.118-21-3.74-42.444-12.2-61.812a51.343,51.343,0,0,0-10.171-15.219l.344,1.781Zm52.969,47.531c12.183,8.085,22.588,18.717,33.444,28.59q15.352,14.491,30.431,29.473c-.341,20.827-1.227,41.679-.562,62.5,1.624,5.174,6.4,8.7,9.916,12.666,2.251,2.054.45,5.782.981,8.552-.158,15.417-.277,30.834-.459,46.25,7.106-10.379,7.975-23.233,9.45-35.4,1.587-18.254,1.571-36.613,1.925-54.908-1.845-13.312-9.178-25.115-16.142-36.34-4.324-5.674-6.619-12.417-11.064-18.044-8.453-11.54-18.067-22.537-29.638-31.022-5.416-3.371-11.844-4.848-17.363-7.907-3.9-1.485-7.528-4.4-11.606-5.374l.688.969Zm-93.5,7.406c-4.526-.309-2.124,1.207.561,2.695,13.963,9.158,28.385,18.015,40.5,29.3,1.3.578,3.055,5.277,3.1,3.251.028-4.312.657-8.867.339-13.032-5.157-3.641-10.229-7.949-15.437-11.187-5.216,1.822-11.075-1.678-12.594-6.906-.812-2.6-4.493-2.366-6.693-3.256a36.523,36.523,0,0,0-9.776-.869Zm8.063,12.125c12.348,10.225,25.05,20.24,35.563,32.313-.222-2.649,1.316-6.066,0-8.238-10.85-9.332-22.283-18.263-35.032-24.887-1.421-.243-1.539-.613-.531.813Zm74.063,6.438q.391,9.812.781,19.625c3.988-1.763,8.2-3.731,12.656-3.094q-6.72-9.1-13.5-18.156l.063,1.625Zm-9.406,23.188c-2.086,2.425-1.121,6.314-1.2,9.31a23.486,23.486,0,0,0,2.2,8.44c1.2-3.534,3.361-6.843,4.531-10.219-1.6-2.531-2.559-6.116-5.281-7.562h-.125l-.125.031Zm-22.719,3.25c-1.033,3.423-.682,7.442,2.153,9.979,4.577,5.755,8.964,11.862,14.378,16.8.343-3.151,1.29-6.534,1.219-9.562q-8.762-9.035-17.531-18.062l-.125.484-.093.36Zm1.406,15.844c.346,3.88-1.143,8.254,1.781,11.438,4.557,6.823,8.478,14.765,15.593,19.244.736-1.714-.128-6.009,0-8.707.607-3.191-.957-5.51-3.275-7.519q-7.05-7.882-14.1-15.769v1.313Zm134.75,40.625c-1.323,27.482-6.3,54.638-11.562,81.594,2.727-1.18,6.071-1.837,8.438-3.344,4.018-21.474,7.494-43.334,6.382-65.246-.442-4.928-.808-10.043-2.976-14.535l-.281,1.531ZM595.593,302.094c9.221,24.68,15.029,50.386,19.875,76.25,1.821-.349,7.817,1.275,6.914-.449-4.2-4.562-6.271-11.639-3.508-17.52-3.925-4.121-4.727-10.4-3.469-15.844-2.971-4.333-5.393-9.83-3.75-15.156,1.375-2.031-.262-3.083-1.219-4.812-1.877-3.245-1.08-7.389-.75-10.687a14.868,14.868,0,0,1-6.125-12.469c-2.14.488-7.554-.958-7.969.688ZM684.906,315c-12.153,4.267-18.865,16.532-23.344,27.875a130.068,130.068,0,0,0-7.312,29.813q14.93-7.094,29.906-14.094c-.866-13.423-2.276-27.153.469-40.437-.191-.957,2.715-4.622.281-3.156Zm26.813,118.813c-3.9,2.1-8.334,3.822-11.906,6.156a110.5,110.5,0,0,1-17.906,47.375c4.444-.8,9.542-.532,13.5-2.75,8.81-15.815,13.686-33.575,17.219-51.25l-.906.469Zm-19.781,7.937c-3.818,1.5-8.258,2.437-11.719,4.25-3.588,14.686-8.021,29.9-17.219,42.188-3.358,2.949,3.536.7,5.328,1.047,2.488-.832,6.623.84,7.982-1.713,7.247-14.567,14.142-29.808,16.378-46.053l-.468.176-.282.106Zm-21.531,6.781c-3.728,1.4-8.059,2.277-11.437,3.969-3.869,13.85-9.765,27.173-18.5,38.656,4.639-.386,9.561-.308,14.031-.969,7.013-9.758,10.388-21.7,14.173-33.046.945-2.944,1.766-5.919,2.609-8.892l-.476.153-.4.128Zm-23.875,6c-3.671,1.014-7.978,1.408-11.281,2.781-4.148,12.663-10.991,24.175-17.875,35.563,4.376-.451,8.993-.472,13.219-1.25a161.651,161.651,0,0,0,16.75-37.281l-.487.112-.325.075Zm-20.594,4.156c-3.588,1.146-7.723,1.785-11,3.219-3.315,10.176-6.393,20.947-12.781,29.5-3.832,2.706-1.344,2.5,2.25,2.344,2.773-.349,6.447,1.232,7.859-2.049a67.29,67.29,0,0,0,14.422-33.232l-.48.14-.27.079Zm-18.656,4.344c-2.166,1.233-6.323.406-6.625,3.537-3.335,9.159-6.045,18.853-11.75,26.869-3.913,2.571,2.724.685,4.388.879,2.993.447,4.785-.9,5.441-3.773,3.787-8.953,8.152-17.99,9.265-27.73l-.478.146-.24.073Z" fill="#088740"/><path d="M427.867,376.922s19.467-37.667-6.635-69.517-69.147-27.181-88.6-13.171c-17.96,12.931-38.076,41.429-21.792,79.984s33.159,3.72,33.159,3.72,16.71,3.113,21.021,4.789a202.366,202.366,0,0,1,62.853-5.805Z" fill="#ed1a23" stroke="#ed1a23" stroke-width="1"/><path d="M272.626,424.081,217.762,463.7l53.848-42.672.677-10.5-28.109,17.611,30.141-19.981,2.371-5.08-.339-6.1-95.842,43.688,95.842-49.445,2.032,12.869Zm25.4-50.122L223.181,399.7l74.168-28.787Zm-.677-5.419L295.51,363.8,180.848,395.972Zm-1.838-8.128-1.548-4.741-69.572,14.9ZM462.959,423.4l-.558-4.7,50.28,37.229Zm-2.271-15.558-.479-2.371,34.92,22.67Zm-2.23-13.229-1.355-5.935,98.309,52.332ZM436.88,374.489l1.935-4.838,71.846,27.819Zm2.419-7.741,112,27.335L440.75,363.119Zm1.935-7.015.242-3.629,75.716,15.24Zm.968-7.015,133.773,5.564L442.443,347.637Zm.242-8.467-.484-3.87,84.183-3.387Zm-1.21-6.531,115.631-20.562L440.994,333.123Zm-1.451-7.5,77.651-20.562L439.3,327.075Zm-1.935-6.531-.726-5.322,127.726-44.752Zm1.935-11.612,62.17-33.383-62.17,28.787Zm22.255-38.7,35.318-29.029L462.28,275.791Zm12.337,5.806,51.768-32.657-51.526,35.318Zm-52.251,13.3,87.811-81.038L425.511,295.87Zm-2.661-.242c.726-.968,43.543-58.3,43.543-58.3l-46.93,55.88Zm-5.806-2.9L475.1,190.157l-65.556,95.794Zm-6.29-5.806c0-1.693,32.173-63.621,32.173-63.621l-35.076,62.411Zm-5.806-3.387-4.354-1.693,48.865-115.147Zm-12.821-4.354,21.288-73.539L392.37,277Zm-8.467-2.419,5.08,1.21,16.933-107.648Zm-2.419-.242,3.629-70.394L373.5,272.647Zm-7.983-.726.242-107.164L365.034,272.4Zm-11.37.242,3.629-.484-8.467-67.733Zm-4.838,1.451c-.726-1.935-20.32-106.921-20.32-106.921l16.449,107.406Zm-7.015,1.693-20.8-70.878,17.659,71.846ZM334.8,281.355l4.112-2.9L289.8,164.757Zm-10.644-12.1-29.029-48.623,25.642,47.413ZM299.72,248.7c-.726-1.21-38.947-57.09-38.947-57.09l37.5,59.992Zm19.594,41.366-2.177,1.693-44.994-57.573Zm-6.531,9.676,1.935-5.564-88.3-81.764Zm-1.693,1.21-60.718-43.543,58.057,46.446Zm-6.531,8.467,2.9-3.629L207.8,245.8Zm-3.87,7.257,2.419-3.87L230.535,277ZM295.366,353.2l-.726-5.08-133.773,10.16Zm-.726-7.5.484-3.87-52.977-2.661,13.3,2.419Zm-1.21-6.773,2.9-4.838-120.469-17.9Zm1.935-7.741,1.693-3.87-37.5-7.5.484,2.419Zm2.661-6.773,1.693-5.08L167.4,273.614Z" fill="#ed1a23"/><path d="M435.913,374.731s15-37.253-11.611-69.669-58.057-29.029-78.377-23.707-59.025,39.189-43.059,92.892" fill="none" stroke="#fbca0a" stroke-width="12"/><path d="M502.241,504.345s8.025-4.386-11.853-25.4c-21.564-22.8-108.373-131.4-108.373-131.4l38.608-32.851,7.789,9.144L466,290.986s-.339,4.741,57.235-54.186l-54.864,41.317s-6.773-1.016,0-7.112L466,268.3s0,2.032-4.741,1.693c0,0-4.741,1.016-5.419,2.371,0,0-11.176-8.467-11.853-10.837s-3.048,3.048-3.048,3.048l3.048,10.16L421.639,293.7s.339,6.435-10.5,2.032c-2.032,1.016-26.077,20.659-26.077,20.659l-1.693-2.709L366.437,327.9l-34.883-42.333s3.725-5.757-4.741-15.24-20.32-24.384-20.32-24.384-10.5-1.693-15.917,10.5-9.483,9.483-16.933,8.128-8.467-12.869-69.088,74.168L233,373.282l60.621-80.264s1.693-6.1,1.693-8.128,8.805-3.725,9.483-6.773,6.1-.677,13.547,10.837c0,0-2.371,2.371,4.064,9.144S355.6,337.722,355.6,337.722l-4.741,4.4-5.757-.339-14.563,11.853-.677,8.805L319.7,371.25l-6.1-.677-7.451,6.435-1.693,4.741-6.435-5.08-35.56,16.595-.677,6.1,12.531-6.435-.677,11.853-6.773,7.112s-.677,3.725,2.371,5.08c0,0-4.741,5.419-.339,6.435a2.423,2.423,0,0,1,.677,3.048c-1.016,1.693-13.547,13.547-20.32,23.707L234.7,453.884c.026.172-5.757,5.757-5.757,5.757l-28.109,25.4,21.336,28.109s47.413-69.765,51.816-71.458c0,0,7.789-7.112,11.515-5.757s11.176,8.467,13.208,22.013,6.435,9.144,6.435,9.144,6.1-5.757,7.451-6.435-1.693-5.08-4.741-4.741c0,0-5.757-20.32-5.757-25.739,0,0,8.128,1.355,14.9-7.112s-.677-5.757.677-13.208c0,0,37.592,24.723,78.57,20.32.677-1.016.339-25.4.339-25.4s-32.512,1.355-57.234-14.224l14.9-13.885s7.112-6.435,9.144-11.853,8.805-8.805,8.805-8.805L490.049,500.281s6.876,8.4,12.192,4.064Z" stroke="#000" stroke-width="0"/><path d="M304.206,467.007s6.265-6.265,7.62-6.6c0,0,.75-3.145-3.81-3.81-2.23-.325-6.519-25.569-6.519-25.569s-.847-7.2-5-4.572a113.309,113.309,0,0,0-11.007,8.467s11.43,4.318,14.309,24.638c0,0,.677,7.874,4.4,7.451Zm-32.574-25.188,1.726-1.627-7.183-8.662-1.367,1.409Zm-1.038,1.566s-27.771,36.068-48.6,67.9c0,0-17.441-23.2-19.3-26.416L235.372,454.9l14.224-3.725,14.055-17.1Zm74.367-78.507,46.817-38.316,5.508,7.184L367.59,358.652a18.04,18.04,0,0,0-5.388,7.184c-1.916,4.67-8.022,10.178-8.022,10.178Z" fill="#964a3c"/><path d="M301.855,423.19s2.754,5.388,7.3,1.317,6.825-5.628,4.191-8.5-3.353-3.592-4.909-2.036-5.747,5.388.479,5.747C308.919,419.718,309.159,422.711,301.855,423.19Zm-32.149,2.934s-2.215-1.856-.778-3.053,140.93-117.94,140.93-117.94a2.3,2.3,0,0,1,2.514.239c1.437.958-1.676,2.155-2.395,2.754s-140.271,118-140.271,118Zm36.819-26.162s1.664-1.056-.73-4.887-2.2-9.368-5.5-11.158c-2.827-1.537,3.233,12.812,6.226,16.045Zm-38.2,18.2,63.7-53.522-1.317-.838-62.383,52.564Zm10.393-15.585,4.233-3.895v-6.265l-4.741,3.048Zm9.821-8.3,8.3-7.281-2.032-1.016-6.265,4.233Zm40.64,15.409S355.768,423.912,381,425.267C381,425.267,355.091,428.653,329.183,409.688Zm1.355-5.08a169.773,169.773,0,0,0,51.985,14.732S354.582,420.864,330.537,404.608Zm52.493,9.652s-27.6-3.387-50.8-15.24C332.231,399.02,354.752,415.784,383.03,414.26Zm-48.767-19.643s26.247,12.531,49.107,14.224C383.37,408.841,363.727,412.9,334.263,394.617Zm3.048-27.94c-1.016-.339-7.521-3.973-7.521-3.973l-.977.835,7.143,4.663Zm3.217-.931,10.916,12.644,2.013-1.941-10.389-12.312Zm14.732-13.293-8.855-10.4,4.283.188,7.112,8.686Zm36.914-31.665c-.508-.847-5.01-5.916-5.01-5.916l-1.933,1.6,13.208,16.844s2.579-1.644,1.9-1.982-8.167-10.548-8.167-10.548Zm6.1,9.652s51.271-43.175,51.985-43.857c.47-.45-.339-.508-.339-.508l-53,43.18Zm28.787-34.713-1.524-.508,20.32-17.1,1.355.677Zm33.528-13.039c0-1.185.677-6.265.677-6.265s6.773,6.6,6.6,8.128-2.032,4.572-3.895,2.032a27.006,27.006,0,0,0-3.387-3.895Zm11.176-.847c.508-.677,15.071-11.345,19.812-17.949C484.461,268.125,471.761,281.841,471.761,281.841Zm-37.084,24.553c.847-.508,16.764-13.377,19.981-18.288C446.7,292.509,434.677,306.395,434.677,306.395ZM491.742,497.4s2.709-2.371,5.588,1.016,1.122,4.3.275,4.973-2.753.114-4.276-2.087a8.124,8.124,0,0,1-1.587-3.9Zm-7.514-10.88s.571-1.989-.445-2.667-22.435-27.56-22.435-27.56-2.74-.835-1.989.254c5.807,8.43,16.865,21.118,16.865,21.118s1.27,2.37,8,8.853Zm-57-71.077C425.7,412.4,381,359.734,381,359.734l-.508.169-.339,1.863,46.228,54.525Zm-69.934-81.28L360,331.794,324.95,287.26h-2.032l-.677,1.693Zm-33.359-51.646,1.863-2.2-11.684-14.9-2.371,2.2ZM291.76,277.1s16.087.339,19.473-16.425C304.968,272.528,291.76,277.1,291.76,277.1Zm.169-11.515s10.5,2.2,13.377-11.345C301.412,262.368,291.93,265.585,291.93,265.585Zm0-4.233s9.144.847,8.975-10.5C290.406,252.208,291.93,261.352,291.93,261.352ZM230.462,367.693l3.725-3.725-23.2-27.94-4.233,3.725Z" fill="#fff"/><path d="M302.873,395.231l.539-2.1,2.395.06.359,3.113-1.976.9Zm31.91-26.342a18.789,18.789,0,0,1,.359-1.916l1.856-.778,6.765-2.814-1.051,2.219-.446,1.193-1.616-.479Z" fill="#fff"/><path d="M389.143,323.809l.718-2.694,3.293-1.5.157,4.222-1.25.171Z" fill="#fff"/><g transform="translate(-6.992 -39.164)"><path d="M256.345,668.974l-.242,5.255q-.116,2.509,2.517,2.64l.991.049-.062,1.347-11.653-.576.062-1.347.536.026a3.689,3.689,0,0,0,2.167-.365,2.389,2.389,0,0,0,.841-2l.628-13.625a2.82,2.82,0,0,0-.5-2.093,2.972,2.972,0,0,0-2.03-.666l-.7-.035.062-1.347,4.3-.057q3.408-.085,5.473.017a24.783,24.783,0,0,1,5.81.828,7,7,0,0,1,3.3,2.02,5.482,5.482,0,0,1,1.412,4q-.192,4.177-5.181,5.314a17.273,17.273,0,0,1,2.537,3.282q.9,1.412,2.858,4.075A6.3,6.3,0,0,0,271.4,677.3a9.048,9.048,0,0,0,2.38.675l-.061,1.331q-.734.015-2.066-.052a12.8,12.8,0,0,1-5.6-1.205,6.676,6.676,0,0,1-1.694-1.417,21.913,21.913,0,0,1-1.945-2.7l-1.791-2.84a14.068,14.068,0,0,0-1.651-1.989Zm.524-11.385-.458,9.937,1.3.064a8.449,8.449,0,0,0,4.5-.723,4.346,4.346,0,0,0,2.087-3.931q.229-4.968-5.687-5.261Z" fill="#fbce1d" stroke="#000" stroke-width="0.424"/><path d="M291.927,663.185a7.133,7.133,0,0,0-.441-2.177,1.864,1.864,0,0,0-1.738-1.014l-7.3-.289-.286,7.767,5.4.213a2.723,2.723,0,0,0,1.947-.48,2.628,2.628,0,0,0,.649-1.915l1.333.053-.253,6.874-1.333-.053q.068-1.853-.99-2.3a6.017,6.017,0,0,0-1.926-.312l-4.894-.193-.229,6.217a3.086,3.086,0,0,0,.132,1.288,1.057,1.057,0,0,0,1.038.547l5.561.22a3.647,3.647,0,0,0,2.7-.737,5.251,5.251,0,0,0,1.269-2.633l1.252.05-.59,5.41-20.048-.793.05-1.348,1.366.054q2.6.1,2.693-2.374l.507-13.766a2.448,2.448,0,0,0-.655-2.1,3.842,3.842,0,0,0-2.162-.541l-.325-.013.05-1.348,18.34.725.157,5.018Z" fill="#fbce1d" stroke="#000" stroke-width="0.424"/><path d="M303.4,670.989l-.147,5.124a2.5,2.5,0,0,0,.672,2.112,3.592,3.592,0,0,0,2.149.555l1.008.031-.039,1.348-11.336-.348.039-1.348.5.016a3.316,3.316,0,0,0,1.766-.266,1.925,1.925,0,0,0,.616-1.634l.423-14.8q.044-1.534-.842-1.865a4.732,4.732,0,0,0-1.426-.213l-.732-.022.039-1.348q1.809-.079,5.41-.2,3.779-.069,5.291-.023,4.554.14,6.9,2.22a5.956,5.956,0,0,1,2.075,4.838q-.132,4.618-5.086,5.933a12.214,12.214,0,0,1-3.494.365,21.337,21.337,0,0,1-3.8-.471Zm.321-11.208-.28,9.792a10.272,10.272,0,0,0,2.4.327,4.3,4.3,0,0,0,4.346-2.279,6.6,6.6,0,0,0,.634-2.831,5.131,5.131,0,0,0-1.179-3.747,4.752,4.752,0,0,0-3.54-1.441,11.529,11.529,0,0,0-2.382.18Z" fill="#fbce1d" stroke="#000" stroke-width="0.424"/><path d="M333.554,660.681l.026-1.349,8.638.182-.026,1.349-.244-.005a3.581,3.581,0,0,0-2.322.541,2.91,2.91,0,0,0-.793,2.26l-.169,8.6q-.09,4.585-2.625,6.859-2.435,2.192-6.909,2.1a11.829,11.829,0,0,1-6.765-1.9,7.039,7.039,0,0,1-2.887-6.284l.2-10.3a2.587,2.587,0,0,0-.468-1.865,2.62,2.62,0,0,0-1.812-.527l-.569-.012.026-1.349,10.428.22-.026,1.349-.569-.012a2.075,2.075,0,0,0-2.4,2.294l-.2,10.3q-.075,3.844,2.942,5.155a7.8,7.8,0,0,0,2.982.619,6.722,6.722,0,0,0,4.765-1.485,6.174,6.174,0,0,0,1.883-4.716l.165-8.4q.048-2.461-1.044-3.209a3.088,3.088,0,0,0-1.619-.405Zm-6.765-3.566,2.6-6.472,5.352.113-6.017,6.4Z" fill="#fbce1d" stroke="#000" stroke-width="0.424"/><path d="M346.361,676.788l.131-12.848q.025-2.478-.964-2.843a6.5,6.5,0,0,0-1.9-.223l-.83-.009.014-1.349q.8.008,2.1-.078,1.726-.133,2.1-.146l1.856-.081q2.556-.124,3.548-.113,6.768.074,9.135,2.562a4.363,4.363,0,0,1,1.237,3.15q-.031,3.086-4.142,4.069a7.181,7.181,0,0,1,3.657,1.979,5.306,5.306,0,0,1,1.539,3.878q-.039,3.827-4.027,5.571a11.2,11.2,0,0,1-4.63.826l-12.9-.141.014-1.349q3.026.033,3.722-1.173a3.607,3.607,0,0,0,.343-1.682Zm4.677-7.1-.069,6.744q-.024,2.327,1.24,2.846a4.688,4.688,0,0,0,1.754.289q4.67.051,4.718-4.754a4.992,4.992,0,0,0-1.425-3.877,5.426,5.426,0,0,0-3.794-1.323q-.911-.01-2.425.075Zm.093-9.155-.078,7.672q1.464.083,2.57.1,4.165.045,4.2-3.58.043-4.215-4.936-4.27a15.093,15.093,0,0,0-1.758.082Z" fill="#fbce1d" stroke="#000" stroke-width="0.424"/><path d="M385.976,675.27l-2.45,6-17.849-.03,0-1.349h.553q2.018,0,2.524-1.058a3.4,3.4,0,0,0,.246-1.416l.022-13.826q0-2.479-2.616-2.483h-.635l0-1.349,11.292.019,0,1.349-.96,0a2.159,2.159,0,0,0-2.477,2.407l-.022,14.231a1.662,1.662,0,0,0,.364,1.265,1.989,1.989,0,0,0,1.293.323l4.247.008a3.85,3.85,0,0,0,3.078-1.445q.554-.657,2.054-2.644Z" fill="#fbce1d" stroke="#000" stroke-width="0.424"/><path d="M386,661.121l-.006-1.349,10.592-.057.006,1.349-.553,0a2.27,2.27,0,0,0-2.525,2.61l.068,13.674a2.545,2.545,0,0,0,.628,1.953,2.92,2.92,0,0,0,1.988.546l.488,0,.006,1.349-10.592.057-.006-1.349.472,0a2.123,2.123,0,0,0,2.412-2.39L388.91,663.7a2.906,2.906,0,0,0-.563-2,2.511,2.511,0,0,0-1.907-.588Z" fill="#fbce1d" stroke="#000" stroke-width="0.424"/><path d="M419.471,674.729l1.334-.018a23.887,23.887,0,0,1-1.791,6.314,6.718,6.718,0,0,0-1.972-.209,20.363,20.363,0,0,0-2.542.347,20.666,20.666,0,0,1-3.177.356,13,13,0,0,1-5.972-1.3,11.3,11.3,0,0,1-4.625-4.068,10.626,10.626,0,0,1,1.916-13.71,13.163,13.163,0,0,1,9.028-3.421,12.413,12.413,0,0,1,4.01.552q2.321.778,2.4.776a.836.836,0,0,0,.663-.346l.83-.011.386,6.032-1.3.018a7.252,7.252,0,0,0-3.8-4.669,6.751,6.751,0,0,0-2.9-.584,7.345,7.345,0,0,0-5.759,2.625,9.756,9.756,0,0,0-2.177,6.674,11.27,11.27,0,0,0,1.1,4.825,8.756,8.756,0,0,0,3.171,3.649,7.488,7.488,0,0,0,4.279,1.24,6.876,6.876,0,0,0,4.2-1.44,8.738,8.738,0,0,0,2.7-3.629Z" fill="#fbce1d" stroke="#000" stroke-width="0.424"/><path d="M436.7,672.535l-7.287.185-1.3,4.081q-.47,1.446,0,2.007.453.562,2.7.5l.423-.011.032,1.349-8.833.224-.032-1.349.5-.013a2.741,2.741,0,0,0,2.141-.982,7.253,7.253,0,0,0,1.053-2.27l5.3-16.613-.382-1,4.929-.125L443.01,675.9a6.793,6.793,0,0,0,1.223,2.145,3.165,3.165,0,0,0,2.185.872l.032,1.349-10.833.275-.032-1.349,1.171-.03q1.464-.037,1.823-.7a2.413,2.413,0,0,0-.209-1.968Zm-.81-1.885-3.249-8-2.607,8.145Z" fill="#fbce1d" stroke="#000" stroke-width="0.424"/><path d="M454.786,659.854l-.054-1.348q1.184-.118,2.353-.219l1.607-.136q.179-.008,1.395-.144,2.659-.282,4.545-.363,6.5-.278,9.5.977a9.323,9.323,0,0,1,5.1,5.047,11.12,11.12,0,0,1,.875,3.979,10.77,10.77,0,0,1-2.781,7.865q-3.258,3.666-11.158,4l-10.583.453-.054-1.348a4.587,4.587,0,0,0,2.212-.483,2.18,2.18,0,0,0,.781-2.058L458,662.754q-.094-2.359-1.249-2.748a6.072,6.072,0,0,0-1.96-.152Zm7.69-.329.642,16.106q.069,1.735.6,2.16a4.072,4.072,0,0,0,2.4.345q5.089-.218,7.355-3.4a10.135,10.135,0,0,0,1.7-6.418,9.65,9.65,0,0,0-2.75-6.9q-2.488-2.374-7.349-2.166a18.835,18.835,0,0,0-2.594.28Z" fill="#fbce1d" stroke="#000" stroke-width="0.424"/><path d="M499.509,661.343a7.1,7.1,0,0,0-.633-2.126,1.85,1.85,0,0,0-1.82-.843l-7.295.41.407,7.762,5.394-.3a2.738,2.738,0,0,0,1.9-.664,2.642,2.642,0,0,0,.475-1.969l1.332-.075.36,6.869-1.332.075q-.1-1.852-1.191-2.2a6,6,0,0,0-1.946-.127l-4.89.275.326,6.213a3.075,3.075,0,0,0,.246,1.27,1.05,1.05,0,0,0,1.083.446l5.556-.313a3.668,3.668,0,0,0,2.62-.992,5.288,5.288,0,0,0,1.03-2.743l1.251-.07-.106,5.443-20.033,1.127-.071-1.347,1.365-.077q2.6-.146,2.47-2.621l-.721-13.755a2.433,2.433,0,0,0-.84-2.03,3.828,3.828,0,0,0-2.2-.332l-.325.018-.071-1.347,18.327-1.031.6,4.981Z" fill="#fbce1d" stroke="#000" stroke-width="0.424"/><path d="M252.874,719.713,243.7,700.792l-.424,13.848a10.9,10.9,0,0,0,.036,1.9,1.912,1.912,0,0,0,.9,1.509,4.677,4.677,0,0,0,2.244.348l.044,1.517-8.325.258-.044-1.517q2.542-.136,2.865-1.607a18.482,18.482,0,0,0,.2-2.606l.418-14.075a3.564,3.564,0,0,0-.451-2.282,2.922,2.922,0,0,0-2.142-.6l-.044-1.517,7.9-.245,7.771,16.08,6.537-16.523,8.069-.25.044,1.517-1.534.142q-.983.22-1.11.869a8.3,8.3,0,0,0,.022,2.03L268,713.873a18.37,18.37,0,0,0,.221,1.929,1.866,1.866,0,0,0,1.014,1.487,7.046,7.046,0,0,0,2.189.331l.044,1.517-11.82.367-.044-1.517.64-.02a4.008,4.008,0,0,0,2.184-.485,2.516,2.516,0,0,0,.634-2.126q-.019-.645-.126-1.818L261.6,699.781l-7.831,19.9Z" fill="#fbce1d" stroke="#000" stroke-width="0.424"/><path d="M274.084,707.411a12.38,12.38,0,0,1,3.851-9.567,14.631,14.631,0,0,1,10.259-3.952,13.654,13.654,0,0,1,9.712,3.241,11.544,11.544,0,0,1,3.906,8.826,12.762,12.762,0,0,1-2.107,7.462,12.6,12.6,0,0,1-5.876,4.771,16.97,16.97,0,0,1-12.709-.133,11.563,11.563,0,0,1-5.289-4.576A11.878,11.878,0,0,1,274.084,707.411Zm5.564-1.994a15.109,15.109,0,0,0,2.664,8.938,7.5,7.5,0,0,0,6.491,3.318q4.941-.1,6.711-5.13a14.562,14.562,0,0,0,.744-5.062,15.051,15.051,0,0,0-2.415-8.393,7.334,7.334,0,0,0-6.513-3.507,7.02,7.02,0,0,0-6.792,4.733,12.389,12.389,0,0,0-.89,5.1Z" fill="#fbce1d" stroke="#000" stroke-width="0.424"/><path d="M328.777,711.184l1.5-.02a26.874,26.874,0,0,1-2.016,7.1,7.562,7.562,0,0,0-2.218-.236,23.018,23.018,0,0,0-2.86.39,23.267,23.267,0,0,1-3.574.4,14.621,14.621,0,0,1-6.719-1.465,12.716,12.716,0,0,1-5.2-4.577,11.954,11.954,0,0,1,2.158-15.424A14.808,14.808,0,0,1,320,693.509a13.96,13.96,0,0,1,4.511.622q2.611.875,2.7.874a.943.943,0,0,0,.746-.39l.933-.013.434,6.786-1.464.02a8.159,8.159,0,0,0-4.277-5.254,7.593,7.593,0,0,0-3.267-.658,8.263,8.263,0,0,0-6.48,2.952,10.976,10.976,0,0,0-2.45,7.508,12.678,12.678,0,0,0,1.24,5.428,9.851,9.851,0,0,0,3.567,4.106,8.424,8.424,0,0,0,4.814,1.4,7.735,7.735,0,0,0,4.721-1.62,9.829,9.829,0,0,0,3.042-4.082ZM316.4,721.54l2.318-3.446,1.281-.017-.8,1.491a2.845,2.845,0,0,1,2.326,3.023,3.362,3.362,0,0,1-1.809,3.193,4.087,4.087,0,0,1-1.934.482,5.835,5.835,0,0,1-3.27-.885l.315-1.18a4.91,4.91,0,0,0,2.11.408,1.672,1.672,0,0,0,1.147-.461,1.435,1.435,0,0,0,.48-1.116q-.017-1.309-2.161-1.488Z" fill="#fbce1d" stroke="#000" stroke-width="0.424"/><path d="M348.36,709.02l-8.2.056-1.545,4.563q-.557,1.616-.041,2.258.5.642,3.024.624l.476,0,.009,1.518-9.939.068-.009-1.518.567,0a3.079,3.079,0,0,0,2.428-1.06,8.147,8.147,0,0,0,1.229-2.531l6.289-18.576-.41-1.135,5.546-.038,7.612,19.7a7.655,7.655,0,0,0,1.333,2.438,3.565,3.565,0,0,0,2.441,1.027l.009,1.518L346.989,718l-.009-1.517,1.318-.009q1.647-.011,2.064-.754a2.716,2.716,0,0,0-.2-2.218Zm-.874-2.138-3.5-9.062-3.091,9.107Z" fill="#fbce1d" stroke="#000" stroke-width="0.424"/><path d="M375.034,717.917l-8.6-19.207-.839,13.828a10.893,10.893,0,0,0-.02,1.9,1.917,1.917,0,0,0,.859,1.537,4.683,4.683,0,0,0,2.233.42l0,1.518-8.329-.01,0-1.518q2.544-.054,2.912-1.514a18.478,18.478,0,0,0,.277-2.6l.839-14.055a3.568,3.568,0,0,0-.382-2.3,2.928,2.928,0,0,0-2.123-.666l0-1.518,7.908.01,7.286,16.322,7.029-16.305,8.072.01,0,1.518-1.538.093q-.989.189-1.136.833a8.293,8.293,0,0,0-.039,2.03l.881,14.323a18.414,18.414,0,0,0,.163,1.935,1.872,1.872,0,0,0,.969,1.519,7.053,7.053,0,0,0,2.178.4l0,1.518-11.825-.014,0-1.518h.641a4,4,0,0,0,2.2-.415,2.511,2.511,0,0,0,.7-2.1q0-.645-.071-1.821l-.919-13.792-8.423,19.642Z" fill="#fbce1d" stroke="#000" stroke-width="0.424"/><path d="M399.335,713.222l.131-14.454q.025-2.788-1.088-3.2a7.305,7.305,0,0,0-2.14-.248l-.934-.009.014-1.517q.9.008,2.362-.091,1.942-.152,2.363-.167l2.088-.094q2.875-.143,3.992-.132,7.614.074,10.28,2.869a4.909,4.909,0,0,1,1.4,3.542q-.031,3.471-4.654,4.583a8.078,8.078,0,0,1,4.117,2.221A5.969,5.969,0,0,1,419,710.89q-.039,4.306-4.523,6.273a12.6,12.6,0,0,1-5.207.936l-14.515-.141.014-1.517q3.4.033,4.186-1.325a4.058,4.058,0,0,0,.383-1.893Zm5.253-7.992-.069,7.587q-.024,2.618,1.4,3.2a5.274,5.274,0,0,0,1.974.323q5.253.051,5.3-5.355a5.615,5.615,0,0,0-1.608-4.36,6.1,6.1,0,0,0-4.27-1.483q-1.025-.01-2.728.087Zm.093-10.3-.078,8.63q1.647.092,2.891.1,4.686.046,4.723-4.033.043-4.742-5.558-4.8A16.953,16.953,0,0,0,404.681,694.93Z" fill="#fbce1d" stroke="#000" stroke-width="0.424"/><path d="M421.806,695.594l.022-1.517,11.915.189-.022,1.517-.622-.01q-2.855-.045-2.9,2.876l-.227,15.382a2.869,2.869,0,0,0,.663,2.211,3.289,3.289,0,0,0,2.224.661l.549.009-.022,1.517-11.915-.189.022-1.517.531.009q2.727.043,2.767-2.631l.229-15.534a3.276,3.276,0,0,0-.589-2.257,2.828,2.828,0,0,0-2.131-.707Z" fill="#fbce1d" stroke="#000" stroke-width="0.424"/><path d="M464.343,726.2l-.674,1.5a9.048,9.048,0,0,1-2.11.178q-4.557-.108-9.086-3.934l-3.864-3.3a10.836,10.836,0,0,0-3.268-2.089,13.2,13.2,0,0,1-4.723-2.541,11.432,11.432,0,0,1-4.1-9.375,12.089,12.089,0,0,1,4.288-9.3,14.741,14.741,0,0,1,10.366-3.445,15.172,15.172,0,0,1,6.575,1.579,11.609,11.609,0,0,1,4.97,4.634,12.062,12.062,0,0,1,1.561,6.412,12.326,12.326,0,0,1-3.184,8.216,12.87,12.87,0,0,1-7.214,4.136,24.986,24.986,0,0,1,3.52,3.1,30.338,30.338,0,0,0,3.464,3.156,6.2,6.2,0,0,0,3.474,1.069Zm-22.182-21.169q-.168,7.624,3.987,11a7.347,7.347,0,0,0,4.614,1.684q5.124.121,7.014-5.033a16.44,16.44,0,0,0-.977-13,7.4,7.4,0,0,0-6.592-4.141,6.982,6.982,0,0,0-6.964,4.427,12.57,12.57,0,0,0-1.082,5.059Z" fill="#fbce1d" stroke="#000" stroke-width="0.424"/><path d="M485.717,697.2l.05-1.517,9.714.347-.05,1.517-.274-.01a4.028,4.028,0,0,0-2.62.571,3.27,3.27,0,0,0-.927,2.529l-.321,9.669q-.171,5.157-3.057,7.673-2.773,2.425-7.8,2.246a13.318,13.318,0,0,1-7.581-2.245,7.927,7.927,0,0,1-3.152-7.116l.385-11.583a2.912,2.912,0,0,0-.5-2.106,2.95,2.95,0,0,0-2.031-.623l-.64-.023.05-1.517,11.727.419-.05,1.517-.64-.023a2.332,2.332,0,0,0-2.74,2.54l-.385,11.583q-.144,4.322,3.231,5.847a8.773,8.773,0,0,0,3.345.746,7.556,7.556,0,0,0,5.383-1.592,6.939,6.939,0,0,0,2.19-5.274l.314-9.441q.092-2.768-1.125-3.627a3.476,3.476,0,0,0-1.816-.482Z" fill="#fbce1d" stroke="#000" stroke-width="0.424"/><path d="M516.074,702.666a8.028,8.028,0,0,0-.476-2.454,2.1,2.1,0,0,0-1.945-1.157l-8.21-.4-.392,8.735,6.071.293a3.062,3.062,0,0,0,2.195-.521,2.954,2.954,0,0,0,.747-2.148l1.5.072-.347,7.731-1.5-.072q.094-2.084-1.093-2.6a6.773,6.773,0,0,0-2.164-.37l-5.5-.266-.314,6.992a3.471,3.471,0,0,0,.136,1.45,1.19,1.19,0,0,0,1.163.626l6.254.3a4.1,4.1,0,0,0,3.041-.8,5.9,5.9,0,0,0,1.452-2.949l1.408.068-.713,6.08-22.546-1.088.068-1.516,1.536.074q2.926.141,3.051-2.644l.7-15.481a2.756,2.756,0,0,0-.718-2.37,4.326,4.326,0,0,0-2.427-.63l-.366-.018.068-1.516,20.626,1,.131,5.646Z" fill="#fbce1d" stroke="#000" stroke-width="0.424"/></g></g></svg>