<svg id="Layer_1" data-name="Layer 1" xmlns="http://www.w3.org/2000/svg" viewBox="0 0 20 20"><defs><style>.cls-1{fill:#004c97;}</style></defs><g id="IMF_Seal_Blue" data-name="IMF Seal Blue"><path class="cls-1" d="M952.13,543.28l.07,0-.21-.8c-.33,0-.63-.05-1-.08h0l.76-.63-.2-.75-.07,0c0,.16,0,.18-.1.21l-.52.13a4.25,4.25,0,0,1-.64.14c-.09,0-.12,0-.15-.07l0-.1H950l.17.63.08,0,0-.12a.12.12,0,0,1,.08-.16h0c.21-.08.41-.14.62-.2l.37-.09v0l-1.09.78.08.28,1.32.07v0l-1,.25c-.12,0-.14,0-.19-.14l-.07,0,.25,1,.08,0c0-.16,0-.17.09-.21l1.15-.3c.12,0,.14,0,.2.14" transform="translate(-950 -529.99)"/><path class="cls-1" d="M952.39,545.33c.46-.25.6-.67.25-1.28s-.79-.7-1.24-.44-.6.68-.25,1.27.78.71,1.24.45m-1.16-.5c-.1-.17,0-.35.51-.63s.73-.25.81-.11-.19.45-.52.63-.7.3-.81.11" transform="translate(-950 -529.99)"/><path class="cls-1" d="M956.39,549.06l.53-1.19.08,0c.16.07.17.09.14.48l.12.05.2-.45-1.6-.7-.19.46.12,0c.27-.28.3-.29.46-.22l.08,0-.53,1.18c0,.12-.1.11-.29,0l0,.08,1.06.46,0-.07c-.18-.09-.22-.12-.17-.23" transform="translate(-950 -529.99)"/><path class="cls-1" d="M958.77,549.73a15.37,15.37,0,0,1-.32-1.53l-.59-.13a14.93,14.93,0,0,1-1,1.26c-.08.07-.1.07-.28,0v.07l.71.17,0-.08-.19-.06c-.07,0-.08-.05,0-.11l.2-.32.57.13c0,.11,0,.28.06.37s0,.1-.08.09l-.16,0,0,.08L959,550l0-.08c-.18,0-.18-.07-.22-.17m-1.37-.78c.09-.14.26-.38.36-.51h0c0,.19.08.46.11.62Z" transform="translate(-950 -529.99)"/><path class="cls-1" d="M963.14,548c0-.1.09-.12.21-.16l0-.08-.66.17,0,.08.17,0c.06,0,.07,0,.06.09s-.07.42-.13.68h0a6.9,6.9,0,0,1-.54-.53s0-.06,0-.08l.14-.06,0-.07-1.22.31,0,.08c.12,0,.15,0,.23,0s.52.44.71.62a.24.24,0,0,1,.06.11l.07.32c0,.11,0,.13-.23.2l0,.07,1.27-.32,0-.07c-.26.06-.28.05-.31-.06l-.09-.35a.13.13,0,0,1,0-.12c.06-.25.19-.68.25-.84" transform="translate(-950 -529.99)"/><path class="cls-1" d="M965.7,548l-.29-.42.11-.08c.12-.08.17-.06.37.07l.09-.06-.35-.51-.09.07c.05.25,0,.27-.08.35l-.11.08L965,547s0-.07,0-.12l.07,0c.2-.14.32-.06.58.08l.09-.06-.27-.41-1.29.87,0,.06c.14-.08.15-.08.23,0l.67,1c.07.1.06.12-.07.22l0,.07.87-.59,0-.08c-.17.11-.19.1-.25,0" transform="translate(-950 -529.99)"/><path class="cls-1" d="M967.6,545.81l-.6-.55c-.1-.08-.1-.1,0-.21l-.06-.06-.61.64.06,0c.1-.1.12-.1.21,0l.69.62c.22.2.28.33.17.44s-.23.07-.45-.14l-.68-.61c-.09-.09-.09-.11,0-.22l-.06,0-.61.65.06.06c.1-.11.12-.11.21,0l.62.56c.29.27.54.31,1-.16s.38-.71.07-1" transform="translate(-950 -529.99)"/><path class="cls-1" d="M969.29,541.42a.74.74,0,0,0-.65.06,1.09,1.09,0,0,0-.38.66l-.27,1,.07,0c.05-.16.07-.17.2-.14l1.15.31c.12,0,.13,0,.1.21l.08,0,.23-.86a1.52,1.52,0,0,0,.06-.73.72.72,0,0,0-.59-.58m.44,1.21c0,.1-.06.12-.13.1l-1.24-.33c-.05,0-.05,0,0-.13.07-.25.31-.32.8-.19s.65.39.61.55" transform="translate(-950 -529.99)"/><path class="cls-1" d="M950.42,537.89l1.16.29c.12,0,.13,0,.09.2l.08,0,.25-1-.08,0c0,.16-.06.17-.18.14l-1.14-.3c-.12,0-.13,0-.09-.21l-.08,0-.25,1,.08,0c0-.16.06-.17.19-.14" transform="translate(-950 -529.99)"/><path class="cls-1" d="M952.07,534.73c-.22-.34-.22-.36-.11-.5l0-.07,1,.8c.09.07.08.12,0,.28l.06,0,.43-.53v-.28l0,0-1-.79.06-.07c.1-.13.13-.14.5,0l.08-.09-.39-.31-1.08,1.36.4.3Z" transform="translate(-950 -529.99)"/><path class="cls-1" d="M959.94,531.55l-.17,0c-.07,0-.09,0-.06-.1a3.44,3.44,0,0,1,.13-.36l.53,0c0,.1.09.25.12.35s0,.1-.06.1h-.14v.09l1.2,0v-.09c-.17,0-.17,0-.22-.13a12.61,12.61,0,0,1-.56-1.44h-.55a12.79,12.79,0,0,1-.65,1.41c0,.08-.07.09-.23.1v.08l.67,0Zm.18-1.17h0c.06.2.15.44.2.6h-.46l.24-.59" transform="translate(-950 -529.99)"/><path class="cls-1" d="M962.18,530.33l.09,0L962,531.6c0,.12-.08.12-.28.08l0,.08,1.12.28,0-.08c-.19-.05-.25-.08-.21-.19l.33-1.25.09,0c.16,0,.18.07.22.46l.12,0,.12-.48-1.69-.44-.13.48.13,0c.22-.32.25-.33.41-.29" transform="translate(-950 -529.99)"/><path class="cls-1" d="M964,532.32l.5-1.08c0-.11.07-.12.22-.06l0-.07-.94-.42,0,.07c.14.08.15.09.1.21l-.5,1.08c0,.11-.07.12-.22.05l0,.08.93.42,0-.07c-.14-.07-.15-.09-.1-.19" transform="translate(-950 -529.99)"/><path class="cls-1" d="M964.58,531.9c-.31.42-.23.88.38,1.31s1.07.35,1.37-.08.24-.88-.39-1.31-1.07-.36-1.37.07m.61.44c.37-.5.57-.54.71-.43s0,.51-.18.8-.5.57-.71.43-.16-.34.18-.8" transform="translate(-950 -529.99)"/><path class="cls-1" d="M967.39,535.32c-.11,0-.13,0-.21-.15l-.07,0,.31.58.07,0-.07-.16c0-.06,0-.09.06-.1l.38-.06.25.47a3.08,3.08,0,0,0-.25.27c-.06.06-.08.06-.12,0l-.09-.12-.07,0,.56,1,.07,0c-.07-.16-.06-.17,0-.25a14.34,14.34,0,0,1,1-1.2l-.25-.47a13.85,13.85,0,0,1-1.57.13m1.21,0v0l-.42.47-.21-.39.63-.09" transform="translate(-950 -529.99)"/><path class="cls-1" d="M969.75,537h-.07c0,.16,0,.18-.1.21l-1.17.27c-.12,0-.14,0-.18-.14h-.08l.35,1.51.53-.07,0-.12c-.39-.09-.47-.15-.5-.32s0-.2.09-.23l1.14-.25c.12,0,.14,0,.19.17l.08,0Z" transform="translate(-950 -529.99)"/><path class="cls-1" d="M955.53,547.58l.25-.33-1.27-.92,0,.06c.13.1.13.12.06.22l-.71.95c-.07.09-.09.1-.23,0l-.05.06,1.31,1,.25-.34-.09-.06c-.33.12-.39.1-.56,0s-.17-.13-.09-.24l.31-.41h0c.14.1.18.13.13.3l.09.07.25-.33-.09-.07c-.13.08-.17,0-.32-.05h0l.34-.45c0-.06,0-.06.12,0l.08.06c.2.13.2.15.16.5Z" transform="translate(-950 -529.99)"/><path class="cls-1" d="M955.24,533.09l-.27-.32-.08.07c0,.34,0,.39-.16.53s-.16.14-.25,0l-.35-.4h0c.14-.11.18-.14.33-.06l.08-.07-.26-.31-.09.07c0,.15,0,.17-.13.29h0l-.36-.42c-.05-.06-.05-.07,0-.12l.08-.06c.18-.15.2-.15.53,0l.09-.07-.28-.32-1.19,1,.05.06c.13-.1.15-.09.23,0l.71.83h.5Z" transform="translate(-950 -529.99)"/><path class="cls-1" d="M954.92,531.63l.54,1c.06.11,0,.13-.11.22l0,.07,1-.5,0-.07c-.16.08-.18.07-.23,0l-.24-.44,0,0c.08,0,.25-.13.31,0a3.7,3.7,0,0,0,.25.43c.13.11.2.05.48-.09l.36-.18,0-.07c-.15,0-.18,0-.37-.18s-.24-.28-.65-.15h0c.39-.22.39-.41.29-.59s-.44-.2-.79,0l-1.11.57,0,.06c.16-.07.18-.06.24,0m.67-.48a.3.3,0,0,1,.42.08l0,.06c.07.15.06.3-.21.44l-.05,0-.26-.5c0-.06,0-.08.05-.13" transform="translate(-950 -529.99)"/><path class="cls-1" d="M961,549.56c0-.19-.09-.35-.51-.42h0c.45,0,.53-.2.53-.39,0-.35-.29-.39-.68-.39h-1.25v.08c.18,0,.2,0,.2.14v1.18c0,.12,0,.14-.2.14V550h1.11v-.08c-.18,0-.19,0-.19-.14v-.5h.05c.08,0,.28,0,.29.09a2.74,2.74,0,0,0,0,.5c.06.17.14.14.46.14h.4v-.09c-.15,0-.18,0-.25-.33m-.94-.5H960v-.53c0-.07,0-.09.11-.09a.3.3,0,0,1,.35.24.14.14,0,0,1,0,.09c0,.17-.08.29-.39.29" transform="translate(-950 -529.99)"/><path class="cls-1" d="M957.42,530.54l.12.58q.06.3.09.6c0,.1-.1.14-.17.16l-.07,0,0,.07.76-.15,0-.08-.17,0a.12.12,0,0,1-.14-.09h0c0-.08-.1-.39-.14-.58l-.08-.41h0c.37.35.67.7,1,1l.5-.1-.16-.9a2.74,2.74,0,0,1-.08-.5c0-.12.09-.13.16-.15l.08,0,0-.08-.76.15,0,.08.16,0a.11.11,0,0,1,.14.08h0c0,.16.09.33.13.5l0,.25h0c-.3-.25-.64-.57-.91-.82l-.76.16v.07c.17,0,.19,0,.2.11" transform="translate(-950 -529.99)"/><path class="cls-1" d="M966,533.71l-.06-.05-.06.05,0,0H966l-.06,0" transform="translate(-950 -529.99)"/><path class="cls-1" d="M967.1,533l-.45.38a5,5,0,0,1-.46.38h.29l.27-.25.32-.29h0c-.12.51-.28.93-.39,1.43l.34.39.69-.61a4,4,0,0,1,.4-.32c.11-.06.17,0,.22.06l0,.06.06-.06-.51-.57,0,0,.09.13a.1.1,0,0,1,0,.16h0a4.59,4.59,0,0,1-.39.37l-.2.17h0c.07-.39.18-.83.26-1.18l-.53-.59-.06.06c.11.12.11.14,0,.22" transform="translate(-950 -529.99)"/><path class="cls-1" d="M968,543.52c-.09-.08,0-.16,0-.22l0-.07-.07,0-.37.68.07,0,.09-.13a.11.11,0,0,1,.14-.06h0a4,4,0,0,1,.46.23l.23.12h0l-1.22.16-.37.69.06,0c.09-.14.11-.14.22-.08l.51.28a5.48,5.48,0,0,1,.52.31c.07.06,0,.17,0,.23l0,.07.07,0,.38-.68-.07,0-.09.14a.13.13,0,0,1-.17,0h0c-.17-.08-.35-.17-.52-.27l-.37-.19h0c.51-.06,1,0,1.49-.11l.26-.46-.81-.44a4.12,4.12,0,0,1-.45-.27" transform="translate(-950 -529.99)"/><path class="cls-1" d="M954.13,546.22c.1-.06.16,0,.21.06l.06.05.06-.05-.53-.56-.06,0,.1.13a.1.1,0,0,1,0,.16h0a3,3,0,0,1-.35.36l-.2.18h0c.06-.39.16-.84.22-1.19l-.54-.56-.05,0c.11.12.1.15,0,.23l-.43.39a5.81,5.81,0,0,1-.46.38c-.07.05-.17,0-.23-.06l-.07,0-.06.05.54.57.06-.06-.11-.14a.11.11,0,0,1,0-.16h0a5.66,5.66,0,0,1,.43-.43l.31-.28h0c-.1.5-.25.93-.35,1.43l.36.37.67-.62a3.09,3.09,0,0,1,.39-.33" transform="translate(-950 -529.99)"/><path class="cls-1" d="M950.93,536.42l.54.25c.2.09.47.22.55.27s.05.16,0,.23l0,.07.07,0,.32-.71-.07,0-.09.15a.12.12,0,0,1-.16.06h0c-.08,0-.36-.14-.56-.22l-.4-.17h0c.51-.11,1-.14,1.48-.25l.21-.47-.84-.39a2.82,2.82,0,0,1-.46-.23c-.1-.07,0-.16,0-.22l0-.07-.07,0-.31.69.07,0,.08-.15a.12.12,0,0,1,.14-.06h0a3.41,3.41,0,0,1,.48.18l.28.11h0c-.38.1-.84.19-1.2.26l-.33.73.07,0c.07-.15.09-.16.21-.11" transform="translate(-950 -529.99)"/><polygon class="cls-1" points="0.67 9.72 0.85 9.22 1 9.72 1.51 9.72 1.09 10.04 1.25 10.53 0.83 10.21 0.37 10.54 0.57 10.02 0.15 9.72 0.67 9.72"/><polygon class="cls-1" points="19.16 9.72 19.34 9.22 19.49 9.72 20 9.72 19.58 10.04 19.75 10.53 19.32 10.21 18.86 10.54 19.05 10.02 18.65 9.72 19.16 9.72"/><path class="cls-1" d="M966.61,536.06v-2.23h-2.09a7.75,7.75,0,0,0-8.87,0h-2.08V536a7.51,7.51,0,0,0,2.49,10.41A7.7,7.7,0,0,0,966.6,544a7.49,7.49,0,0,0,0-7.93m-.16,2.78a3.81,3.81,0,0,1-3.37,4.2,3.93,3.93,0,0,1-2.62-.65,1.66,1.66,0,0,1-.21-.16l-.1-.08a3.8,3.8,0,0,0,.35-5.41h0a3.85,3.85,0,0,0-.35-.35l0,0,.13-.09a3.86,3.86,0,0,1,5.37.73,3.81,3.81,0,0,1,.75,1.86m-4.37,6h-.18s-.08,0-.11,0l-.1,0-.25.05a2.17,2.17,0,0,1-.36,0h-.19a.44.44,0,0,1-.2,0,.66.66,0,0,1,.2-.06l.22,0,.45-.15a1.9,1.9,0,0,1,.46-.15h.52a1.51,1.51,0,0,0,.46-.13,1.27,1.27,0,0,1,.28-.06h.14a.07.07,0,0,1,.06,0s.07.07,0,.09,0,0-.07,0h-.07s0,0-.07,0l-.22.2-.31.26-.19.12-.22.12a2.4,2.4,0,0,1-.48.1h-.44a1.89,1.89,0,0,1-.34-.09l-.36-.11-.35-.15a2.12,2.12,0,0,0,.44,0h.72l.23,0a1.5,1.5,0,0,0,.46-.17.43.43,0,0,0-.19,0m-2-2.8a3.82,3.82,0,0,1-5.34-.34,3.7,3.7,0,0,1,.34-5.27,3.82,3.82,0,0,1,5.34.34,3.68,3.68,0,0,1-.34,5.27m0-9.43a7.49,7.49,0,0,1,4.06,1.19H956a7.6,7.6,0,0,1,4.06-1.21M952.63,540a7.34,7.34,0,0,1,.93-3.57V541a5.83,5.83,0,0,0,.2,1.5,5.6,5.6,0,0,0,1.53,2.47,8.48,8.48,0,0,0,2.21,1.53,10.65,10.65,0,0,0,1.88.78l.4.12a7.42,7.42,0,0,1-7.14-7.37m7,5.62a.58.58,0,0,1-.19-.19.43.43,0,0,0-.11-.12.28.28,0,0,0-.14-.1H959s0,0-.06-.05a.18.18,0,0,0-.07,0l-.06-.05s0,0-.07,0l.15.18s0,.08,0,.08a.38.38,0,0,1,.15,0c.18,0,.28.19.34.34a.7.7,0,0,1,0,.25v.1l0,.11s0,.08,0,.08l-.14,0a.62.62,0,0,1-.23,0,.76.76,0,0,1-.23-.13s-.08-.05-.09-.07l-.08-.15a.2.2,0,0,1,0-.11.33.33,0,0,1,0-.14.44.44,0,0,1,.13-.25s0,.1,0,.14a.07.07,0,0,0,.08,0l0,0c.05,0,0-.08-.06-.11a.11.11,0,0,1,0-.06,0,0,0,0,0,0-.06l-.11-.12s-.09-.06-.1-.09,0-.13-.07-.07,0,.08,0,.13l-.25,0-.22-.07c-.15,0-.28-.11-.42-.17a2.59,2.59,0,0,0-.45-.14h-.09s-.11,0-.14,0l-.1,0-.12,0c-.12-.1-.13-.27-.22-.39a1.29,1.29,0,0,0-.33-.33c-.06,0-.15-.08-.17-.14s0-.08,0-.08a.14.14,0,0,1,.12.06s.14,0,.19,0l.21.13c.14.09.26.2.4.28a1.47,1.47,0,0,0,.39.21,1.73,1.73,0,0,0,.41.2.56.56,0,0,1,.23.07c.05,0,.06,0,.09,0a.21.21,0,0,0,.06-.1l0,0,0,0a.17.17,0,0,1,0-.1l.06-.11.08-.08a.31.31,0,0,1,.16-.12.59.59,0,0,1,.23,0,.41.41,0,0,1,.22,0l.11,0h.11a.21.21,0,0,1,0,.2.7.7,0,0,1-.11.23s0,.07-.06.09l-.14.08a.77.77,0,0,1-.27.08l-.13,0s-.11,0-.12,0,0-.08.07-.11,0-.09,0-.12,0,0,0,0v.06l-.08.08,0,0v.05l-.06.08c.07,0,.14,0,.21,0l.1,0h.28s.06,0,.1,0a.8.8,0,0,0,.2-.07l.09-.06.08-.08a1.29,1.29,0,0,1,.16-.17,4.39,4.39,0,0,1,.36-.28,3.83,3.83,0,0,1,.44-.25.78.78,0,0,1,.22,0,1.06,1.06,0,0,0,.25,0,1.62,1.62,0,0,1,.44,0,2.51,2.51,0,0,1,.27,0,.65.65,0,0,0,.24,0h.23l.23,0,.21,0c.05,0,.22.06.13.11a.63.63,0,0,1-.22.07l-.2.1a.82.82,0,0,1-.2.12l-.22.09a3.19,3.19,0,0,1-.44.13c-.08,0-.15.06-.22.07h-.12a.21.21,0,0,0-.11,0h-.12l-.11,0-.24,0c-.15,0-.31,0-.46,0h-.44c-.08,0-.13,0-.19.06l-.11,0s.07.06.08.06a1,1,0,0,0,.25,0,.14.14,0,0,0,.09,0,.21.21,0,0,1,.11,0,1.7,1.7,0,0,1,.45,0,.74.74,0,0,1,.25,0l.22.08.41.16.24.07c.06,0,.12,0,.18.06a1.77,1.77,0,0,0,.46.08h.16c.06,0,.11,0,.17,0h.13l.09,0c.07,0,.09,0,.08.09l-.09,0h-.13a2,2,0,0,0-.31.12l-.22.11-.28.07a1.33,1.33,0,0,1-.45.08,1.29,1.29,0,0,1-.51-.07l-.22-.11a4.66,4.66,0,0,1-.5-.25m.59,1.75a7.79,7.79,0,0,0,.83-.22,10.47,10.47,0,0,0,2-.83,6.38,6.38,0,0,0,1.83-1.39,6.1,6.1,0,0,0,1.45-2.44,4.14,4.14,0,0,0,.2-1.52v-4.48a7.32,7.32,0,0,1-3,10,7.54,7.54,0,0,1-3.38.9" transform="translate(-950 -529.99)"/><path class="cls-1" d="M960.71,545.78a1.6,1.6,0,0,0,.23,0,.76.76,0,0,0,.3,0l.24,0v0h-.23l-.3-.05-.3-.08a5.14,5.14,0,0,1-.55-.2,1.2,1.2,0,0,0-.46-.07s.18.06.22.08l.18.09.42.21a.92.92,0,0,0,.23.09" transform="translate(-950 -529.99)"/><path class="cls-1" d="M956.67,544.19l-.14-.11s.08.1.11.12.15.15.12.21,0,0,0,0a.17.17,0,0,0,0,.07.36.36,0,0,0,0,.09.06.06,0,0,0,.08,0s0,0,0,0a.43.43,0,0,0-.06-.22l-.13-.13" transform="translate(-950 -529.99)"/><path class="cls-1" d="M959.43,544.75l.44-.14.45-.09a3.55,3.55,0,0,1,.47-.06l.23,0a.64.64,0,0,0,.19-.08,1,1,0,0,1,.25-.07.74.74,0,0,0,.21,0s.05,0,0,0,0,0,0,0h-.11l-.21,0c-.16,0-.32,0-.48,0a3,3,0,0,0-.43.07,3.24,3.24,0,0,0-.53.16c-.18.07-.34.15-.51.23,0,0,0,0,0,0" transform="translate(-950 -529.99)"/><path class="cls-1" d="M955.78,536.67a.2.2,0,0,1,.13-.09s.05,0,.05,0,0,0-.05.07a.46.46,0,0,1-.07.16s0,0,0,0l-.07,0-.07,0s0,0-.07,0-.06,0-.06,0a.12.12,0,0,1,.05-.07s.09,0,.14,0,0-.1,0-.14" transform="translate(-950 -529.99)"/><path class="cls-1" d="M955.47,536.9s0,0,0,0,0,0,0,0" transform="translate(-950 -529.99)"/><path class="cls-1" d="M960.11,536.56l-.19-.13c-.07,0-.11-.1-.17-.14l-.08-.08-.09-.05a.37.37,0,0,0-.2-.09.17.17,0,0,0-.1,0,.11.11,0,0,0-.11,0h0s0,0,0,0a.3.3,0,0,1,0,.1s0,.06-.08.06h-.24s-.06,0-.1,0h-.24c-.06,0-.06,0-.1,0a.35.35,0,0,1-.09.07.94.94,0,0,1-.22.12l-.11,0s0,0,0,.09,0,0-.07-.05,0-.07,0-.07a.1.1,0,0,0-.07,0c0,.05,0,0-.07,0h-.2s-.12,0-.14,0,0,0-.08,0,0-.07,0-.09a.2.2,0,0,1-.07-.09.16.16,0,0,0-.17-.1.08.08,0,0,1-.09,0,.11.11,0,0,0-.11,0,.27.27,0,0,1-.08.07s0,0,0,0h-.06s-.05,0-.08,0l-.13,0h-.1s-.06,0-.09.06a.1.1,0,0,0,0,.09s.05,0,.08,0h0v0s0,.05,0,.09.17,0,.2,0,0,0,0,0l0,0s0-.06.06-.09a.46.46,0,0,1,.18-.13s.09,0,.09,0a.1.1,0,0,1-.05.1s-.08,0-.1,0-.06,0-.08,0,0,0,0,0,0,0,0,0h.11l.12,0s.07,0,0,.05-.14,0-.2,0l-.12,0a.19.19,0,0,0-.1,0l-.09.07s-.08,0-.1,0,0-.14,0-.19-.08,0-.1,0a.15.15,0,0,0-.11,0,.69.69,0,0,1-.19.1l-.1,0h-.2s0,0-.08.08l-.06.07s0,.07-.07.1-.06,0-.08-.05-.08,0-.1,0-.06,0-.09,0a.24.24,0,0,0-.06.09.11.11,0,0,1,0,.08s-.06,0-.05.09a.2.2,0,0,1,0,.11s.06,0,.09,0l.16,0c.05,0,.05,0,.09-.06l0,0s0,0,0,0a.18.18,0,0,1,.1,0,.12.12,0,0,0,.1,0,.11.11,0,0,1,.11,0l.07.09s0,.08,0,.1a.06.06,0,0,0,0,.06.09.09,0,0,1,0,.06s0,.05,0,.07,0,0,0,.06a.31.31,0,0,0,.13-.06v0c.07-.06.06-.11.06-.19s0-.05,0-.08v0s0,0,0,0,.08.11.08.17a1.21,1.21,0,0,1,0,.19s.14,0,.16,0,0-.06,0-.08,0,0,.07,0a.25.25,0,0,0,0,.12s0,0,0,0V538s.07,0,.1,0a.08.08,0,0,1,0,.05s0,0,0,0,.06,0,.06.07,0,.07-.07.08a.2.2,0,0,1-.1,0,.16.16,0,0,1-.11-.05.19.19,0,0,0-.09,0h-.2a.31.31,0,0,0,0-.1s-.16,0-.16-.11v0h0l.06.09s0-.06,0-.09l0,0s0,0-.05,0,0,0,0,0l0,0s0,0,0,0,0,0-.05,0h-.34l-.12-.06-.06,0-.06,0-.26.18a2,2,0,0,0-.34.25l-.19.23a.39.39,0,0,0,0,.18l0,.25a.35.35,0,0,1,0,.11.29.29,0,0,0,0,.09c0,.07,0,.15.08.23l.06.13v.1a.1.1,0,0,0,0,.09s.06,0,.11,0,0,0,.09,0,.06,0,.11,0h.22a.3.3,0,0,0,.08.08s.1,0,.11.06,0,.1,0,.13a.29.29,0,0,0,0,.09,1.6,1.6,0,0,1,.1.23c0,.08.08.12.08.19v.13a.56.56,0,0,1,0,.12.07.07,0,0,0,0,.07l.08.14c0,.05,0,.1.07.16l.19.46.11.22.08,0s.06,0,.09-.06l.24-.12c.06,0,.06-.13.08-.19s0,0,0-.06a.1.1,0,0,0,.08-.13h0v0s0,0,0-.05v-.09c0-.08,0-.1.09-.14a.21.21,0,0,0,.06-.18v-.29s-.11-.14-.08-.18l.15-.14c.12-.12.24-.24.35-.37a.66.66,0,0,0,.09-.19.2.2,0,0,1,0-.11s.07-.08,0-.09a.35.35,0,0,0-.26.07h-.11c-.08,0-.07-.13-.12-.18s0-.08-.07-.09h-.05V539a1.18,1.18,0,0,0-.07-.2.31.31,0,0,0-.05-.1.21.21,0,0,1,0-.11v-.11s.05-.08.08-.05l.06.2a1.09,1.09,0,0,0,.07.24.27.27,0,0,0,.08.07s0,.06,0,.08a1,1,0,0,0,0,.17c0,.05.05,0,.09.06s.08,0,.11,0l.11,0,.2-.11a.17.17,0,0,1,.1,0s.06-.07.07-.09,0,0,.06-.07.07-.1,0-.1h-.05a.11.11,0,0,0,0-.08s-.13,0-.18,0-.05,0-.08,0a.31.31,0,0,1-.05-.1.14.14,0,0,1,0-.07.09.09,0,0,1,.08.05.28.28,0,0,1,0,.09H957a.13.13,0,0,1,.09,0s.05.06.07.06l.12,0a.54.54,0,0,1,.18,0,.1.1,0,0,1,.09,0,.47.47,0,0,1,.06.09s0,0,.08,0,0,0,0,0a.78.78,0,0,0,0,.21l.13.18.12.16a.3.3,0,0,0,.08-.17.08.08,0,0,1,0-.06.12.12,0,0,0,0-.08.21.21,0,0,1,.08-.18,1.49,1.49,0,0,0,.14-.12.19.19,0,0,1,.16-.06s.06,0,.08,0,0,.07,0,.09l0,0,0,0s0,.06,0,.09.08.08.13,0a.64.64,0,0,0,.06.18.41.41,0,0,1,.05.19,1.08,1.08,0,0,0,.08.19c0,.06.07.13.14.15s.05,0,0,0,0,0,0,0v-.06a.29.29,0,0,0-.07-.18.27.27,0,0,0-.08-.07.13.13,0,0,1,0-.07.16.16,0,0,1,0-.17c.05.05.11.15.18.16s.06,0,.09-.07,0,0,0,0a.1.1,0,0,0,0,0,.42.42,0,0,0,0-.25.34.34,0,0,1,0-.14s.06-.08.08-.09.05,0,0,0a.06.06,0,0,0,0,.06h0s.06,0,.07,0,0,0,0-.07a.1.1,0,0,1,.08-.1s.09-.08.12-.1a.65.65,0,0,0,0-.13.49.49,0,0,0,0-.17.57.57,0,0,0-.11-.29s0-.05,0-.08-.06,0-.08,0,0-.08,0-.09l0,0s0,0,0,0l.07.07s0,.07,0,.11,0,0,0,0,0,0,0,0,.06,0,.06-.07v-.1a.16.16,0,0,1-.06-.13.27.27,0,0,1,.05-.19s0,0,0-.09a0,0,0,0,1,0,0,.07.07,0,0,0,0-.05c0-.08,0-.13,0-.21a.59.59,0,0,0-.11-.19l-.09-.08s-.07,0-.08-.07,0,0,0,0,0,0,0,0-.07,0-.09,0,0-.1,0-.1a.08.08,0,0,1,.07-.07.1.1,0,0,0,.1,0s0-.06,0-.08a.38.38,0,0,1,.09.13l0,.05h0a.12.12,0,0,0,.08,0c.05,0,.1,0,.16,0s.06,0,.06,0a.16.16,0,0,0,0-.08m-3.61.48s0,0,0,0,0,0,0,0m.17.85c0,.05-.14,0-.2,0s-.08,0-.06,0a.18.18,0,0,1,0-.09s.07,0,.09,0l0,0s0,0,0,0,.06,0,.07,0,0,.05,0,.08m.38,0a.1.1,0,0,0,0,.09.11.11,0,0,1,0,.11s0,.09-.07.08-.06,0-.08,0,0,0,0,0,0-.06,0-.09v-.1s0,0,.07-.06.09,0,.07,0" transform="translate(-950 -529.99)"/><path class="cls-1" d="M955.56,536.63l0,0,.06,0s.05,0,.05,0,0,.06,0,.07l-.09,0h-.1s0,0-.07,0,0-.06,0-.08a.24.24,0,0,0,.06-.08" transform="translate(-950 -529.99)"/><path class="cls-1" d="M956.58,540.48c0-.05,0-.05,0-.07s.06,0,.07.06a.44.44,0,0,1,0,.23s0,.06-.06.09a.2.2,0,0,0,0,.08.43.43,0,0,0,0,.11s0,.08,0,.09,0,.07-.07,0a.3.3,0,0,1-.08-.08c-.05,0,0-.14,0-.19a.21.21,0,0,0,0-.11.17.17,0,0,1,0-.1.1.1,0,0,1,0-.08l.08-.07" transform="translate(-950 -529.99)"/><path class="cls-1" d="M958,539.45l.06-.08a.25.25,0,0,1,0,.12s0,.09-.07.07,0-.08,0-.11" transform="translate(-950 -529.99)"/><path class="cls-1" d="M958.69,539.58a.28.28,0,0,1,.18,0,.86.86,0,0,1,.14.13l.13.13s0,.13,0,.17-.1-.1-.1-.11a1.53,1.53,0,0,1-.11-.16.24.24,0,0,0-.13-.11h-.08s-.05-.06,0-.08" transform="translate(-950 -529.99)"/><path class="cls-1" d="M959.2,539.94a.56.56,0,0,1,0,.12s.09,0,.12,0,.08,0,.1,0,0,.09,0,.08,0-.05-.09-.05l-.12,0s-.08,0,0-.08,0-.08,0-.11" transform="translate(-950 -529.99)"/><path class="cls-1" d="M959.52,540.19l.09,0h.08l.09,0c.05,0,.05,0,0,0s-.13,0-.16,0l-.08,0s-.07,0,0,0" transform="translate(-950 -529.99)"/><path class="cls-1" d="M959.92,540.3H960s0,.05,0,.06h-.07l-.06,0h-.07s0,0,0,0a.45.45,0,0,0,.16,0" transform="translate(-950 -529.99)"/><path class="cls-1" d="M959.29,539.61a.23.23,0,0,0,.16-.06.27.27,0,0,0,.08-.07s.05-.07.09-.05.08,0,.08.05l-.07,0s0,.06,0,.08a.09.09,0,0,1,0,.1s-.06.07-.06.08,0,.05,0,.08,0,0-.06,0a.09.09,0,0,0-.08,0s-.08,0-.1,0l0-.09a.13.13,0,0,1,0-.09s0-.06,0-.07" transform="translate(-950 -529.99)"/><path class="cls-1" d="M959.94,539.73a.28.28,0,0,0-.2,0,.19.19,0,0,0-.08.16.17.17,0,0,0,0,.1s.06.06.08.05,0-.1,0-.15,0,0,0,.05l0,0s.06,0,.05,0a.12.12,0,0,0-.05,0c-.07,0,.05,0,.07-.05s-.06,0-.09,0,.05-.05.08-.06.1,0,.06-.06" transform="translate(-950 -529.99)"/><path class="cls-1" d="M960,539.58a0,0,0,0,1,.07,0v.06s0,0,0,0,0,.06,0,.07-.1,0-.12-.06,0-.08,0-.12" transform="translate(-950 -529.99)"/><path class="cls-1" d="M959.85,539.28s0-.08.06-.07a.08.08,0,0,1,0,.09s0,.05,0,.1,0,.08,0,.1-.05,0-.08,0h-.06l0,0s0-.06,0-.07.06,0,.1,0,0,0,0-.06a.09.09,0,0,0,0-.05" transform="translate(-950 -529.99)"/><path class="cls-1" d="M959.77,539.15s.08.06,0,.06-.08,0,0-.06" transform="translate(-950 -529.99)"/><path class="cls-1" d="M959.85,539.08l0,0s0,0-.06,0,0-.12,0-.07" transform="translate(-950 -529.99)"/><path class="cls-1" d="M959.72,538.8a.14.14,0,0,1,.08.05s0,0,0,.07,0,.07,0,.08,0,.08,0,.08a.18.18,0,0,1-.09,0s0,0,0-.08-.05-.14,0-.16" transform="translate(-950 -529.99)"/><path class="cls-1" d="M959.76,538.47a.19.19,0,0,1,0-.07s.05,0,.06,0a.68.68,0,0,1,0,.14c0,.06-.07.07-.11,0a.29.29,0,0,1,0-.13" transform="translate(-950 -529.99)"/><path class="cls-1" d="M960.16,539.71c-.06-.09,0-.09.1-.08s0,0,.06.06,0,0,0,0a.05.05,0,0,0,0,0s.13-.06.19,0,.1.12.16.16l.09.06,0,0a0,0,0,0,1,0,0,2.12,2.12,0,0,1,.11.21c0,.07.1.18,0,.2s-.06-.07-.07-.1-.07,0-.1,0-.07-.09-.12-.09-.06.08-.13,0-.06-.08-.12-.09-.11-.05-.08-.1a.09.09,0,0,0,0-.07.09.09,0,0,0,0-.07.37.37,0,0,0-.14-.07h-.07s0,0,0-.06-.05,0,0,0a.08.08,0,0,1,.07,0s0,0,0,0" transform="translate(-950 -529.99)"/><path class="cls-1" d="M961,539.81v0c.06,0,.16.07.13.13a0,0,0,0,1,0,0s0,0,0,0,0,0,0,0,0,0,0,0" transform="translate(-950 -529.99)"/><path class="cls-1" d="M961,540v0s0,0,0,.07v0l0,0s-.07,0-.06,0,.07,0,.06-.08" transform="translate(-950 -529.99)"/><path class="cls-1" d="M961.15,540c.06,0,.06.12,0,.15s-.06-.11,0-.15" transform="translate(-950 -529.99)"/><path class="cls-1" d="M961.17,540.16a.1.1,0,0,1,.05,0v.09a.16.16,0,0,1,0,.09s0,0,0-.06,0,0,0,0l0,0" transform="translate(-950 -529.99)"/><path class="cls-1" d="M960.05,540.38h.21s0,0,0,.07,0,0-.06.08,0,.13.07.17.05,0,.08,0l.06-.1s0-.06,0-.09,0-.08,0-.11.07.14.07.2a.13.13,0,0,0,0,.09.15.15,0,0,1,0,.13.5.5,0,0,0,0,.21.55.55,0,0,1,0,.22.23.23,0,0,1,0,.11.35.35,0,0,1,0,.08l-.05.11s0,0-.07.07l-.06.1a.18.18,0,0,1-.07.08l-.18.13-.09,0h-.12a.16.16,0,0,1-.09,0s0-.07,0-.1a.89.89,0,0,1,0-.23s-.06,0-.09,0,0,0,0-.09-.06-.14-.16-.15a1.29,1.29,0,0,0-.44,0l-.08-.05a.07.07,0,0,1,0-.09l0-.09a.25.25,0,0,1,0-.12s0-.05.05-.08a.76.76,0,0,1,0-.11.24.24,0,0,1,.14-.14l.19-.08h.06s0,0,0,0,.06,0,.09-.08a.27.27,0,0,1,.19-.08c.08,0,.12-.08.19-.12" transform="translate(-950 -529.99)"/><path class="cls-1" d="M959.79,542.05l.06,0s0,0,0,0h0s.05,0,.07,0a0,0,0,0,1,0,.05h0l-.06.06a.3.3,0,0,1,0,.08s-.11,0-.1,0a.06.06,0,0,1-.08,0h0a0,0,0,0,1,0,0,.14.14,0,0,1,.07-.08" transform="translate(-950 -529.99)"/><path class="cls-1" d="M956,536h.09s0,0,.08,0,0,.06,0,.09a.19.19,0,0,1-.13,0s-.09,0-.09,0,0-.06.06-.08" transform="translate(-950 -529.99)"/><path class="cls-1" d="M959.64,536.7a1.22,1.22,0,0,1,.25.2s0,0,0,.06a.16.16,0,0,0,0,.07s.13.08.08.11-.13,0-.15,0a1.21,1.21,0,0,0,0-.14c-.05-.09-.17-.13-.22-.23h0" transform="translate(-950 -529.99)"/><path class="cls-1" d="M960.16,536.72s.11,0,.05.06-.08,0-.11,0l0,0" transform="translate(-950 -529.99)"/><path class="cls-1" d="M960.2,536.84s0,0,0,0h-.07s0,0,0,0h.06" transform="translate(-950 -529.99)"/><path class="cls-1" d="M960,537.15l.07,0s.1,0,.11,0,.06,0,0,.06-.07,0-.08.06,0,.08,0,.08,0-.08-.05-.12-.12-.11,0-.12" transform="translate(-950 -529.99)"/><path class="cls-1" d="M960.2,537.32s0,.07,0,.09,0,0,0,.06,0,.07,0,.1a.21.21,0,0,1,0,.11s0,0,0,0v0a0,0,0,0,0,0,0s0,0,0,.05,0,0-.07,0a.38.38,0,0,1-.13.06s0,.09-.06.06,0-.07,0-.09,0-.06.07-.1.06,0,.1,0-.07-.06-.07-.09.06-.07.07-.11,0-.1,0-.13,0-.12.06-.12" transform="translate(-950 -529.99)"/><path class="cls-1" d="M960.13,538s-.15,0-.1.06.11,0,.1-.06" transform="translate(-950 -529.99)"/><path class="cls-1" d="M960,538l0,0s-.08.09-.06.12,0,0,.05,0,.06,0,0-.05" transform="translate(-950 -529.99)"/><path class="cls-1" d="M960.59,536.17a.22.22,0,0,0,.18-.08.13.13,0,0,1,.07-.05l.1,0,.1,0,.1-.05a.27.27,0,0,1,.19,0s.15,0,.17.08,0,.05,0,.09a.17.17,0,0,1,0,.1l0,0v.07s0,0-.06.08a.13.13,0,0,1-.09,0s0-.11,0-.13,0,0,0,0,0,0,0,0l-.09.05h-.34l-.1,0s0,0,0,0l-.05,0h-.27c0-.08.16-.1.21-.18" transform="translate(-950 -529.99)"/><path class="cls-1" d="M961,536.92a.06.06,0,0,1,.07,0s-.06,0-.08,0-.08,0-.07,0,.06,0,.08,0" transform="translate(-950 -529.99)"/><path class="cls-1" d="M960.88,537a.09.09,0,0,1,.07,0s0,0,0,0a.13.13,0,0,1-.09,0s0,0,.06,0" transform="translate(-950 -529.99)"/><path class="cls-1" d="M962,537.49s0,0,.06.06.05.06,0,.08-.06,0-.07-.07,0,0,0-.07" transform="translate(-950 -529.99)"/><path class="cls-1" d="M962.37,536.33s0,0,0,0,0,0,.05,0,0,.08,0,.12-.05,0-.09,0,0-.08,0-.12" transform="translate(-950 -529.99)"/><path class="cls-1" d="M962.7,535.89a.52.52,0,0,1,.1-.11s.14,0,.13,0h-.08l-.05.05,0,0s-.07,0,0,0" transform="translate(-950 -529.99)"/><path class="cls-1" d="M962.87,535.88a.14.14,0,0,1,.11,0s0-.06,0-.08,0-.06.07-.08l.12,0c.08,0,.15,0,.21,0s0,0,.08,0a.17.17,0,0,1,.12,0l.1.06.09.06s.06,0,.09,0l.11,0s0,0,0,.09a.37.37,0,0,0,.05.11s0,.06,0,.09l.06.12s0,0,.05.07a.26.26,0,0,1,0,.09c0,.09-.06.11-.14.11a.71.71,0,0,1-.2,0,.67.67,0,0,1-.19-.14l-.08-.08s-.07,0-.07-.06,0-.08,0-.09l-.13,0-.19,0-.11,0s0,0,0,0h-.06c0,.11.13,0,.2.08a.79.79,0,0,0,.22.06.16.16,0,0,1,.08.06.11.11,0,0,0,.08.07l.11,0s.05,0,0,.06-.07,0-.08,0a.37.37,0,0,1,0,.11s0,.07,0,.06l-.11,0s-.22,0-.21-.06,0,0,0-.08,0-.05-.06-.07a.2.2,0,0,0-.11,0,.19.19,0,0,1-.11-.07s0,0-.05,0l0-.06a.12.12,0,0,0-.11-.07c-.07,0,0-.06-.07-.1a.14.14,0,0,1,0-.06s0,0,0,0,0,0,0,0,0,0,0-.06.08,0,.08,0,0,0,0-.07l0-.08" transform="translate(-950 -529.99)"/><path class="cls-1" d="M964.35,536.09a.07.07,0,0,1,.1,0h0l.13.06.1.09s0,0,0,.06h-.06c-.06,0-.08,0-.12-.06s0,0,0,0h-.06s-.09,0-.11,0,0,0,0,0a.06.06,0,0,0,.06,0" transform="translate(-950 -529.99)"/><path class="cls-1" d="M962.63,536.12s0-.07.08,0,0,.07,0,.09-.07,0-.07,0" transform="translate(-950 -529.99)"/><path class="cls-1" d="M962.53,536.25l.06-.08s.08,0,.07,0l-.06.08s-.06,0-.08,0" transform="translate(-950 -529.99)"/><path class="cls-1" d="M962.7,536.24s.08,0,.08,0,0,.09,0,.13a.13.13,0,0,1-.1-.07s0,0,0-.05,0,0,0-.06h0" transform="translate(-950 -529.99)"/><path class="cls-1" d="M962.56,536.35a.06.06,0,0,1,.09,0h0s0,0,0,.06a0,0,0,0,0,0,.05s0,0,0,0,0,0,0,0,0,0,0,0,0,0,0,.05-.08,0-.12,0a.28.28,0,0,1-.12,0v-.11s0-.09,0-.11" transform="translate(-950 -529.99)"/><path class="cls-1" d="M966,540.23a.89.89,0,0,1-.08-.17s-.07,0-.08,0l-.09,0-.17-.06-.08,0h-.1a.19.19,0,0,0,0-.15s0-.11-.11-.12a.25.25,0,0,1-.16-.06.43.43,0,0,1,0-.07.15.15,0,0,0-.06,0l-.14-.1a.45.45,0,0,0-.13-.11l-.08,0s0-.05-.08,0-.08.09-.13.08,0,0,.06-.06,0,0,0-.05,0,0,0,0l-.23.05s0,0-.06.07,0,0,0,0h0s0,0,0,0a.13.13,0,0,0-.09,0l-.1.05s-.07,0-.09-.05a.17.17,0,0,1,0-.1c0-.07,0-.17-.06-.17s-.15.08-.2,0,.12-.14,0-.19-.15,0-.2,0a.08.08,0,0,1-.11,0l-.07-.09a.13.13,0,0,1,0-.1.25.25,0,0,1,0-.09.36.36,0,0,1,0-.11s.06,0,.11,0,.07,0,.09,0l.12,0s.06,0,.1,0a.17.17,0,0,1,.1.07.33.33,0,0,1,0,.1s0,.08.06,0a.14.14,0,0,0,0-.19s0,0,0-.08a.16.16,0,0,1,0-.09l.12-.16a.47.47,0,0,0,0-.17.19.19,0,0,1,.08-.16s0-.1.07-.15l.12-.15a.07.07,0,0,0,0-.07s-.06,0,0-.07,0,0,0,0,0,0,0,0a.1.1,0,0,0-.09,0s0,0,0,0,0,.06-.05,0,0,0,0,0H964s0-.06.07-.06l.11,0s.16,0,.17-.11,0-.06-.06-.09,0,0,0,0h-.06a.41.41,0,0,1-.19,0,.26.26,0,0,1-.18-.12s0-.06-.07,0a.07.07,0,0,1-.09,0,.57.57,0,0,0-.22,0c-.05,0-.06,0-.07.07s0,0,.05.07,0,.06,0,.08,0,0,0,.07a.41.41,0,0,1,0,.19s-.07-.07-.11-.08a.27.27,0,0,1-.13,0l-.13-.07h-.06l0-.05s0-.06,0-.09.08-.06.09-.11,0-.1,0-.12l.13,0c0-.06-.12-.09-.18-.13l-.09-.06s0-.06-.07-.07-.07,0-.07,0a.14.14,0,0,0,0,.11s0,.07,0,.1-.06,0-.11,0a.38.38,0,0,1-.21,0l-.1-.06s0,0-.09,0l-.21,0-.2-.11-.07,0s0,0-.06,0l-.17,0-.16.05a.11.11,0,0,0,0,.07s0,0-.06,0,0,0,0,0l0,0a.16.16,0,0,0,0,.15s0,.05,0,.08,0,0-.07,0a.14.14,0,0,0-.14,0l0,0h0a.25.25,0,0,0,.12,0s.05-.05.09,0a.08.08,0,0,0,.1,0,1,1,0,0,1,.24,0c.07,0,.11.09.15.15s.1.27.17.39l0,0a0,0,0,0,1,0,0V538s0,.06.07.09l.06.11s0,.06.06.09a.69.69,0,0,0,.1.19c0,.06.07.14.14.18s0-.08,0-.09,0-.05,0-.09,0,0,0-.09l-.08-.09s0-.06,0-.05.05,0,.06.08l0,.09s0,.07.06.1,0,0,.06.06,0,.09,0,.11.08,0,.09,0l0,.11a.41.41,0,0,0,.33.26h.11a.21.21,0,0,1,.1.06.75.75,0,0,0,.2.1s.07,0,.09,0,0,.06.07.08l.1,0h.05s0,0,0,.05,0,0,.06-.05,0,0,.06,0h0a.17.17,0,0,1,.07.2s0,0-.05.08l-.06.11a.38.38,0,0,0,0,.21.43.43,0,0,1,0,.11.27.27,0,0,0,0,.12.76.76,0,0,1,0,.21.2.2,0,0,0,0,.11.21.21,0,0,0,.06.1l.08.08s0,.08,0,.11v.08s0,0,0,.06a.44.44,0,0,1,0,.15l0,.06s0,0,0,.05a.49.49,0,0,0,0,.07s0,.05,0,.07a.09.09,0,0,0,0,.07.14.14,0,0,1,0,.06l-.08.12a.61.61,0,0,0-.07.14l-.09.13s0,0,0,0l-.07,0s-.09.06-.1.1,0,.12,0,.15-.09.08,0,.11-.07.09,0,.15l.06.06v.08s0,0,.06,0l0,0h0s0,0,0,0,0,0,0-.05v0c0-.06,0,0-.08,0l0,0s0,0,0,0a.13.13,0,0,0,.08-.07,1.74,1.74,0,0,1,.1-.19,1.06,1.06,0,0,1,.17-.2.48.48,0,0,1,.16-.12.6.6,0,0,0,.21-.08l.16-.16c.06-.05.14-.06.2-.11l.1,0,.1-.05.17-.11a.48.48,0,0,1,.16-.13.49.49,0,0,0,.15-.1.36.36,0,0,0,.14-.16.41.41,0,0,1,.05-.09s0-.06,0-.09a.66.66,0,0,1,.12-.17.91.91,0,0,0,.11-.16.22.22,0,0,1,0-.08s0,0,0-.09m-2.16-2.61s0,0,.06,0a0,0,0,0,1,.06,0h0s-.13,0-.15,0l0,0m-.22,0,.08,0s.1,0,0,.06-.07,0-.1,0-.1,0,0-.06m-.06,0s-.08.17-.13.13l0,0,0-.07s.06-.07.08,0m-.23-.11.11,0c.05,0-.06-.05,0-.09s.09,0,.1,0a.16.16,0,0,1,0,.11h-.13s-.12,0-.1,0" transform="translate(-950 -529.99)"/><path class="cls-1" d="M964.37,537.44s0,.07-.06.07,0,0,0-.07,0-.06.07-.06,0,0,0,.06" transform="translate(-950 -529.99)"/><path class="cls-1" d="M964.38,537.17s0-.06.06,0,0,.06,0,.08.12,0,.13,0a0,0,0,0,1,0,.06.05.05,0,0,1,0,0s-.11.06-.13,0,0-.09,0-.11" transform="translate(-950 -529.99)"/><path class="cls-1" d="M963.86,538.77a.66.66,0,0,0,.2.06.06.06,0,0,1,.06,0s-.08,0-.09,0a.7.7,0,0,1-.2-.08.08.08,0,0,1,0-.08s.05,0,.07,0" transform="translate(-950 -529.99)"/><path class="cls-1" d="M964.32,538.87s.12,0,.13,0,0,0,0,0h-.16l0,0s0,0,0,0a.08.08,0,0,1,.07,0" transform="translate(-950 -529.99)"/><path class="cls-1" d="M964.54,538.94s0,0,.05,0,0,0,0,0-.07,0-.09,0h0" transform="translate(-950 -529.99)"/><path class="cls-1" d="M963.24,536.74a.09.09,0,0,1,.08,0s0,.07-.05.06-.06,0-.08-.06,0,0,0,0h0" transform="translate(-950 -529.99)"/></g></svg>