<svg width="199" height="266" viewBox="0 0 199 266" fill="none" xmlns="http://www.w3.org/2000/svg">
<mask id="mask0_201_113" style="mask-type:luminance" maskUnits="userSpaceOnUse" x="17" y="0" width="157" height="138">
<path d="M17.9115 0.666672H173.911V138H17.9115V0.666672Z" fill="white"/>
</mask>
<g mask="url(#mask0_201_113)">
<path fill-rule="evenodd" clip-rule="evenodd" d="M92.6615 18.1198C91.0365 31.1042 94.2865 44.0938 102.411 52.2135C100.786 50.5885 99.1615 50.5885 97.5365 48.9635C92.6615 45.7188 91.0365 42.4688 87.7865 37.599C86.1615 32.7292 86.1615 27.8594 86.1615 22.9896C86.1615 18.1198 87.7865 14.8698 89.4115 10C92.6615 11.625 94.2865 13.25 97.5365 14.8698C99.1615 18.1198 102.411 19.7396 104.036 22.9896C104.036 24.6146 102.411 24.6146 102.411 26.2344C100.786 31.1042 100.786 35.974 100.786 40.849C95.9115 34.3542 92.6615 26.2344 92.6615 18.1198ZM63.4115 1.88542C61.7865 0.260422 58.5365 0.260422 56.9115 1.88542C56.9115 3.50521 56.9115 5.13021 58.5365 6.75521C60.1615 8.37501 61.7865 8.37501 63.4115 6.75521C65.0365 5.13021 65.0365 1.88542 63.4115 1.88542ZM21.1615 63.5781C17.9115 63.5781 17.9115 66.8229 17.9115 68.4479C19.5365 70.0677 21.1615 71.6927 22.7865 70.0677C26.0365 70.0677 26.0365 68.4479 26.0365 65.1979C24.4115 63.5781 22.7865 61.9531 21.1615 63.5781ZM53.6615 131.76C52.0365 133.385 53.6615 135.01 56.9115 136.63C58.5365 136.63 60.1615 135.01 61.7865 133.385C61.7865 130.141 60.1615 128.516 56.9115 128.516C55.2865 126.891 53.6615 128.516 53.6615 131.76ZM128.411 136.63C130.036 138.255 131.661 138.255 133.286 136.63C134.911 135.01 134.911 131.76 133.286 131.76C131.661 130.141 128.411 130.141 128.411 131.76C126.786 133.385 126.786 136.63 128.411 136.63ZM170.661 74.9375C172.286 74.9375 173.911 71.6927 173.911 70.0677C172.286 68.4479 170.661 66.8229 167.411 66.8229C165.786 68.4479 165.786 70.0677 165.786 73.3177C165.786 74.9375 169.036 76.5625 170.661 74.9375ZM138.161 6.75521C138.161 5.13021 138.161 3.50521 134.911 1.88542C133.286 1.88542 131.661 3.50521 130.036 5.13021C130.036 8.37501 131.661 10 133.286 10C136.536 11.625 138.161 10 138.161 6.75521ZM50.4115 47.3385C60.1615 55.4583 73.1615 58.7031 84.5365 55.4583C82.9115 55.4583 81.2865 57.0833 78.0365 57.0833C74.7865 60.3281 68.2865 60.3281 63.4115 58.7031C58.5365 58.7031 53.6615 57.0833 50.4115 53.8333C47.1615 52.2135 43.9115 48.9635 42.2865 45.7188C43.9115 44.0938 47.1615 42.4688 50.4115 40.849C53.6615 39.224 56.9115 39.224 60.1615 39.224C60.1615 39.224 61.7865 40.849 61.7865 42.4688C65.0365 45.7188 68.2865 48.9635 73.1615 50.5885C65.0365 52.2135 56.9115 50.5885 50.4115 47.3385ZM53.6615 97.6667C65.0365 92.7969 74.7865 83.0573 78.0365 71.6927C78.0365 73.3177 78.0365 76.5625 78.0365 78.1875C76.4115 83.0573 74.7865 87.9271 71.5365 91.1771C68.2865 96.0469 65.0365 99.2917 60.1615 100.917C56.9115 102.542 52.0365 104.161 48.7865 104.161C48.7865 100.917 48.7865 97.6667 48.7865 94.4219C48.7865 91.1771 50.4115 87.9271 52.0365 84.6823C52.0365 84.6823 53.6615 84.6823 55.2865 84.6823C60.1615 83.0573 65.0365 81.4323 68.2865 79.8125C65.0365 86.3021 60.1615 92.7969 53.6615 97.6667ZM99.1615 120.396C100.786 107.411 97.5365 94.4219 89.4115 86.3021C91.0365 87.9271 92.6615 87.9271 94.2865 89.5521C97.5365 92.7969 100.786 96.0469 104.036 100.917C105.661 105.786 105.661 110.656 105.661 115.526C104.036 120.396 104.036 123.646 102.411 126.891C99.1615 126.891 95.9115 125.266 94.2865 122.021C91.0365 120.396 89.4115 118.776 87.7865 115.526C87.7865 113.901 87.7865 112.281 89.4115 112.281C91.0365 107.411 91.0365 102.542 91.0365 97.6667C95.9115 104.161 99.1615 112.281 99.1615 120.396ZM141.411 91.1771C131.661 83.0573 118.661 79.8125 107.286 83.0573C108.911 83.0573 110.536 81.4323 112.161 79.8125C117.036 78.1875 121.911 78.1875 126.786 78.1875C133.286 79.8125 136.536 81.4323 141.411 84.6823C144.661 86.3021 147.911 89.5521 149.536 92.7969C146.286 94.4219 144.661 96.0469 141.411 97.6667C138.161 97.6667 134.911 99.2917 131.661 99.2917C131.661 97.6667 130.036 97.6667 130.036 96.0469C126.786 92.7969 121.911 89.5521 118.661 87.9271C126.786 86.3021 134.911 87.9271 141.411 91.1771ZM47.1615 34.3542C50.4115 32.7292 53.6615 32.7292 55.2865 31.1042C55.2865 29.4844 55.2865 27.8594 53.6615 26.2344C52.0365 19.7396 52.0365 14.8698 53.6615 8.37501L61.7865 13.25C60.1615 18.1198 60.1615 21.3646 61.7865 24.6146C63.4115 29.4844 65.0365 32.7292 68.2865 37.599C71.5365 40.849 74.7865 44.0938 79.6615 45.7188C81.2865 45.7188 82.9115 47.3385 86.1615 47.3385C84.5365 45.7188 82.9115 42.4688 81.2865 39.224C78.0365 34.3542 78.0365 27.8594 78.0365 21.3646C79.6615 14.8698 81.2865 8.37501 84.5365 3.50521L86.1615 1.88542H89.4115C94.2865 5.13021 97.5365 6.75521 102.411 10C104.036 11.625 107.286 13.25 108.911 16.4948C108.911 14.8698 110.536 13.25 112.161 11.625C117.036 8.37501 121.911 5.13021 128.411 3.50521L126.786 11.625C123.536 13.25 120.286 14.8698 117.036 16.4948C113.786 19.7396 112.161 24.6146 108.911 29.4844C107.286 34.3542 107.286 39.224 107.286 44.0938C108.911 45.7188 108.911 47.3385 108.911 48.9635C110.536 47.3385 112.161 44.0938 113.786 42.4688C118.661 37.599 123.536 32.7292 128.411 31.1042C134.911 27.8594 141.411 26.2344 146.286 27.8594H149.536L151.161 31.1042C151.161 35.974 151.161 40.849 151.161 45.7188C149.536 47.3385 149.536 50.5885 147.911 53.8333C149.536 53.8333 152.786 53.8333 154.411 55.4583C159.286 57.0833 164.161 58.7031 169.036 63.5781L160.911 66.8229C157.661 65.1979 154.411 63.5781 151.161 61.9531C147.911 60.3281 143.036 60.3281 138.161 61.9531C133.286 61.9531 128.411 63.5781 123.536 66.8229C121.911 68.4479 121.911 70.0677 120.286 71.6927C121.911 70.0677 125.161 71.6927 128.411 71.6927C134.911 71.6927 141.411 74.9375 146.286 78.1875C151.161 81.4323 154.411 86.3021 157.661 92.7969L159.286 96.0469L156.036 97.6667C152.786 100.917 147.911 102.542 144.661 104.161C141.411 105.786 138.161 105.786 134.911 107.411C136.536 109.031 136.536 110.656 136.536 112.281C138.161 118.776 138.161 123.646 136.536 130.141L130.036 123.646C131.661 120.396 130.036 117.151 130.036 113.901C128.411 109.031 126.786 104.161 123.536 100.917C120.286 97.6667 117.036 94.4219 112.161 92.7969C110.536 92.7969 107.286 91.1771 105.661 91.1771C107.286 92.7969 108.911 96.0469 110.536 99.2917C112.161 104.161 113.786 110.656 112.161 117.151C112.161 123.646 110.536 128.516 105.661 135.01L104.036 136.63H102.411C97.5365 133.385 92.6615 131.76 89.4115 128.516C87.7865 126.891 84.5365 125.266 82.9115 122.021C81.2865 123.646 81.2865 125.266 79.6615 126.891C74.7865 130.141 69.9115 133.385 63.4115 135.01L65.0365 126.891C68.2865 125.266 71.5365 123.646 74.7865 122.021C78.0365 117.151 79.6615 113.901 81.2865 109.031C82.9115 104.161 84.5365 99.2917 82.9115 94.4219C82.9115 92.7969 82.9115 91.1771 81.2865 89.5521C81.2865 91.1771 79.6615 94.4219 78.0365 96.0469C73.1615 100.917 68.2865 105.786 63.4115 107.411C56.9115 110.656 50.4115 112.281 43.9115 110.656H42.2865L40.6615 107.411C40.6615 102.542 40.6615 97.6667 40.6615 92.7969C42.2865 91.1771 42.2865 87.9271 43.9115 84.6823C42.2865 84.6823 39.0365 84.6823 37.4115 83.0573C32.5365 81.4323 26.0365 78.1875 22.7865 74.9375L30.9115 71.6927C32.5365 73.3177 35.7865 74.9375 39.0365 76.5625C43.9115 78.1875 48.7865 78.1875 53.6615 76.5625C58.5365 76.5625 63.4115 74.9375 66.6615 71.6927C68.2865 70.0677 69.9115 68.4479 71.5365 66.8229C68.2865 66.8229 66.6615 66.8229 63.4115 66.8229C56.9115 66.8229 50.4115 63.5781 45.5365 60.3281C40.6615 57.0833 37.4115 52.2135 34.1615 45.7188L32.5365 42.4688L34.1615 40.849C39.0365 37.599 42.2865 35.974 47.1615 34.3542ZM94.2865 57.0833C91.0365 58.7031 87.7865 61.9531 84.5365 63.5781C84.5365 68.4479 86.1615 71.6927 84.5365 76.5625C89.4115 78.1875 92.6615 79.8125 97.5365 81.4323C99.1615 78.1875 104.036 76.5625 107.286 74.9375C105.661 70.0677 105.661 65.1979 105.661 61.9531C102.411 60.3281 97.5365 58.7031 94.2865 57.0833ZM139.786 53.8333C141.411 50.5885 143.036 47.3385 143.036 44.0938C143.036 40.849 143.036 37.599 143.036 34.3542C139.786 34.3542 134.911 35.974 131.661 37.599C126.786 39.224 123.536 42.4688 120.286 47.3385C117.036 50.5885 115.411 55.4583 113.786 60.3281C113.786 61.9531 113.786 65.1979 113.786 66.8229C117.036 53.8333 126.786 45.7188 138.161 40.849C131.661 45.7188 125.161 52.2135 123.536 58.7031C126.786 57.0833 131.661 53.8333 136.536 53.8333C138.161 53.8333 138.161 53.8333 139.786 53.8333Z" fill="#7ED957"/>
</g>
<path d="M3.71102 219.716C3.05477 219.716 2.37769 219.284 1.66935 218.425C0.971436 217.576 0.627686 216.513 0.627686 215.237C0.627686 214.237 0.867268 213.253 1.35685 212.279C2.23185 210.445 3.10685 208.956 3.98185 207.8C4.28393 207.372 4.5131 207.003 4.66935 206.695C4.82039 206.393 4.91935 205.977 4.96102 205.445C5.58602 204.654 6.39852 203.227 7.39852 201.154C9.10685 198.393 11.5444 194.143 14.711 188.404C15.1381 187.612 16.0027 186.06 17.2944 183.737C18.5964 181.404 19.4662 180.018 19.8985 179.57L20.2319 179.112C20.1069 179.336 20.336 178.836 20.9194 177.612C21.5131 176.378 22.1537 175.268 22.836 174.279C23.5131 173.294 24.1173 172.8 24.6485 172.8C25.2162 172.8 25.8673 173.029 26.6069 173.487C27.3569 173.945 28.0027 174.628 28.5444 175.529C29.0964 176.435 29.3777 177.497 29.3777 178.716C29.3777 179.247 29.3569 179.664 29.3152 179.966L28.6694 184.445L28.336 185.883C27.7631 188.789 26.9089 192.758 25.7735 197.8C24.7579 202.273 24.2527 204.977 24.2527 205.904C24.2527 206.169 24.2944 206.378 24.3777 206.529C24.4714 206.685 24.586 206.758 24.711 206.758C24.7944 206.758 25.0079 206.622 25.3569 206.341C25.7162 206.05 26.0287 205.622 26.2944 205.05L27.1485 203.737L28.2735 202.091C29.4923 200.372 31.0027 198.05 32.7944 195.133C34.5964 192.216 37.5235 187.211 41.5652 180.112C42.3985 178.878 43.0756 177.8 43.6069 176.883C44.2996 175.747 44.9714 174.669 45.6277 173.654C46.2944 172.643 46.7996 172.003 47.1485 171.737C47.5912 171.393 48.1381 171.216 48.7944 171.216C49.461 171.258 50.1537 171.503 50.8777 171.945C51.5964 172.378 52.211 172.987 52.711 173.779C53.2214 174.57 53.4819 175.425 53.4819 176.341C53.4819 177.398 53.1589 179.336 52.5235 182.154C51.8829 184.961 51.1485 187.675 50.3152 190.3C50.1329 191.216 49.586 193.393 48.6694 196.82C47.961 199.362 47.4402 201.383 47.1069 202.883C46.7839 204.372 46.6277 205.57 46.6277 206.487V207.029C45.9714 208.211 45.6485 210.581 45.6485 214.133C45.4662 215.581 45.1329 216.701 44.6485 217.508C44.1746 218.326 43.7787 218.737 43.461 218.737L43.2735 218.675C43.0496 218.675 42.8412 218.768 42.6485 218.966C42.4506 219.159 42.1746 219.258 41.8152 219.258C40.7162 219.258 40.0027 218.862 39.6694 218.07C39.3464 217.279 39.1902 216.201 39.1902 214.841C39.1902 214.065 39.211 213.414 39.2527 212.883C39.3881 211.747 40.7944 205.8 43.461 195.05C45.5704 186.622 46.6277 182.211 46.6277 181.82L45.711 183.383C44.836 185.05 43.7371 187.008 42.4194 189.258L37.8152 197.862C37.2423 198.654 36.7735 199.425 36.3985 200.175C36.0235 200.925 35.8152 201.362 35.7735 201.487C35.2423 202.544 34.1902 204.06 32.6069 206.029C32.0756 206.695 31.7735 207.112 31.6902 207.279C31.4662 207.768 30.7631 208.612 29.586 209.82C28.4037 211.029 27.1537 212.128 25.836 213.112C24.5131 214.102 23.4194 214.591 22.5444 214.591C21.3621 214.591 20.2996 214.023 19.3569 212.883C18.4089 211.747 17.9402 210.362 17.9402 208.737C17.9402 207.544 18.1537 205.565 18.586 202.8C19.2944 199.773 20.0444 196.706 20.836 193.591C21.6277 190.482 22.1746 188.44 22.4819 187.466C22.6069 187.081 22.6694 186.643 22.6694 186.154C22.6694 185.852 22.6277 185.654 22.5444 185.57C22.5027 185.57 22.4454 185.612 22.3777 185.695C22.3048 185.779 22.2319 185.893 22.1485 186.029C21.4819 187.086 20.4454 188.935 19.0444 191.57C17.6381 194.195 16.1277 197.289 14.5027 200.841C8.23706 212.372 4.6381 218.659 3.71102 219.716Z" fill="black"/>
<path d="M60.6534 214.529C60.5127 214.268 60.1377 213.919 59.5284 213.487C58.9138 213.044 58.6117 212.773 58.6117 212.675C58.6117 212.508 58.5075 212.258 58.2992 211.925C58.1013 211.591 57.9242 211.294 57.7575 211.029C57.3929 210.685 57.6325 209.544 58.4659 207.612C59.2992 205.685 60.4242 203.398 61.8409 200.758C62.1013 200.497 62.445 200.039 62.8617 199.383C63.2784 198.732 63.5492 198.357 63.6742 198.258C63.6742 198.091 63.7367 197.935 63.8617 197.779C63.9971 197.628 64.1586 197.55 64.3409 197.55L64.8617 196.487C65.0388 196.102 65.8929 195.164 67.4242 193.675C68.9659 192.175 70.1742 191.164 71.0492 190.633C71.8825 190.065 72.7784 189.779 73.7367 189.779C74.7888 189.779 75.695 190.086 76.445 190.695L78.2159 192.216C79.5336 193.315 80.2836 193.945 80.4659 194.112L82.8825 196.3L81.7784 199.591C81.3721 200.773 81.1742 201.893 81.1742 202.945C81.1742 204.612 81.6377 206.169 82.57 207.612C82.7784 208.102 83.07 208.477 83.445 208.737C83.82 209.003 84.3096 209.175 84.9242 209.258C85.893 209.44 86.3825 209.919 86.3825 210.695C86.3825 211.669 86.2002 212.398 85.8409 212.883C85.4919 213.357 85.0804 213.664 84.6117 213.8C83.9034 213.883 83.4138 213.925 83.1534 213.925C81.8721 213.925 80.7054 213.602 79.6534 212.945C78.6117 212.279 77.695 211.164 76.9034 209.591C76.7211 209.331 76.4867 208.852 76.195 208.154C75.9138 207.445 75.7575 206.961 75.7159 206.695C75.4086 207.128 74.9034 207.695 74.195 208.404C69.6794 212.961 66.0179 215.237 63.2159 215.237C62.2419 215.237 61.3877 215.003 60.6534 214.529ZM64.2575 209.05C64.9659 209.148 66.3252 208.362 68.3409 206.695C68.5596 206.518 68.8044 206.31 69.07 206.07C69.3304 205.82 69.6169 205.565 69.9242 205.3C71.1586 204.3 72.1169 203.461 72.7992 202.779C73.4763 202.102 74.1638 201.273 74.8617 200.3L76.32 197.945C75.8721 196.977 75.4711 196.331 75.1117 196.008C74.7627 195.675 74.4138 195.508 74.07 195.508C73.195 195.508 72.0961 196.289 70.7784 197.841C69.4554 199.398 67.8825 201.753 66.0492 204.904C65.5596 205.695 65.1638 206.523 64.8617 207.383C64.5544 208.247 64.3513 208.8 64.2575 209.05Z" fill="black"/>
<path d="M99.4082 215.966C98.7103 215.841 97.9186 215.289 97.0332 214.3C96.1582 213.315 95.6061 212.466 95.3874 211.758C95.3874 211.675 95.3457 211.581 95.2624 211.466C95.179 211.357 95.1165 211.279 95.0749 211.237C94.8926 211.102 94.804 210.372 94.804 209.05C94.804 208.008 94.8561 206.919 94.9707 205.779C95.0801 204.628 95.2207 203.706 95.3874 203.008L96.5749 199.508L97.5124 196.883L99.2832 193.07L96.6582 192.341C96.3353 192.3 96.0801 192.148 95.8874 191.883C95.6894 191.622 95.5957 191.378 95.5957 191.154C95.5957 190.81 95.7832 190.31 96.1582 189.654C96.5332 188.987 96.8249 188.654 97.0332 188.654C97.1686 188.695 97.5228 188.716 98.0957 188.716C99.4134 188.716 100.398 188.654 101.054 188.529C101.497 188.352 101.804 187.997 101.971 187.466C102.189 186.997 102.413 186.591 102.637 186.258C102.856 185.925 103.08 185.565 103.304 185.175C103.429 184.914 103.627 184.508 103.908 183.966C104.2 183.414 104.564 182.779 105.012 182.07C105.096 181.945 105.288 181.633 105.596 181.133C105.898 180.622 106.273 180.19 106.721 179.841C106.981 179.622 107.33 179.435 107.762 179.279C108.205 179.128 108.648 179.05 109.096 179.05C109.872 179.05 110.502 179.273 110.992 179.716C111.393 180.331 111.596 180.789 111.596 181.091C111.596 181.44 111.413 181.898 111.054 182.466C110.788 182.997 110.351 183.695 109.742 184.57C109.21 185.362 108.814 186.003 108.554 186.487C108.122 187.06 107.908 187.497 107.908 187.8C107.908 188.107 108.189 188.258 108.762 188.258C109.372 188.258 110.398 188.128 111.846 187.862C112.064 187.82 112.372 187.8 112.762 187.8C113.814 187.8 114.559 188.112 114.992 188.737C115.434 189.352 115.658 190.112 115.658 191.029C115.658 191.643 115.45 192.018 115.033 192.154C114.617 192.279 113.684 192.341 112.242 192.341C110.835 192.565 109.393 192.675 107.908 192.675C107.643 192.675 107.346 192.69 107.012 192.716C106.679 192.732 106.335 192.779 105.992 192.862C105.643 192.961 105.393 193.102 105.242 193.279C105.085 193.445 104.919 193.727 104.742 194.112C104.617 194.253 104.309 194.758 103.825 195.633C103.21 196.914 102.814 197.685 102.637 197.945C101.497 201.279 100.622 204.727 100.012 208.279C99.9551 208.544 99.929 208.872 99.929 209.258C99.929 209.831 100.117 210.237 100.492 210.487C100.867 210.727 101.601 210.841 102.7 210.841C103.934 210.841 105.101 210.69 106.2 210.383C107.502 209.815 108.492 209.331 109.158 208.925C109.544 208.706 109.908 208.497 110.242 208.3C110.575 208.107 110.804 207.966 110.929 207.883C111.106 207.523 111.408 207.565 111.825 208.008C112.242 208.456 112.554 208.961 112.762 209.529C112.762 210.31 112.606 211.018 112.304 211.654C111.997 212.294 111.231 212.966 110.012 213.675C108.606 214.55 107.158 215.19 105.658 215.591C104.169 215.977 102.768 216.175 101.45 216.175C100.7 216.175 100.018 216.102 99.4082 215.966Z" fill="black"/>
<path d="M127.324 215.445C126.793 215.445 126.376 215.362 126.074 215.195C125.766 215.018 125.329 214.685 124.761 214.195C123.871 213.279 123.183 212.331 122.699 211.341C122.225 210.341 122.053 209.477 122.178 208.737C122.313 208.435 122.371 208.128 122.345 207.82C122.329 207.503 122.324 207.3 122.324 207.216C122.141 207.039 122.053 206.919 122.053 206.862C122.053 206.794 122.095 206.727 122.178 206.654C122.272 206.586 122.345 206.508 122.386 206.425C122.647 206.425 122.73 206.185 122.636 205.695C122.553 205.352 122.704 204.586 123.095 203.404C123.496 202.211 124.001 201.112 124.615 200.112C125.1 199.32 125.813 198.336 126.761 197.154C127.704 195.961 128.543 195.06 129.282 194.445C131.475 192.56 133.454 191.419 135.22 191.029C136.095 190.81 136.949 190.695 137.782 190.695C139.058 190.695 140.043 191.05 140.74 191.758C141.709 192.148 142.412 192.716 142.845 193.466C143.287 194.206 143.574 195.19 143.699 196.425C143.74 196.69 143.761 197.128 143.761 197.737C143.761 200.987 142.537 204.372 140.095 207.883C139.079 209.331 138.063 210.487 137.053 211.362C136.053 212.237 134.824 213.112 133.365 213.987C132.574 214.518 131.74 214.872 130.865 215.05C129.99 215.232 128.808 215.362 127.324 215.445ZM134.032 207.404C134.865 206.669 135.47 205.919 135.845 205.154C136.22 204.378 136.751 203.023 137.449 201.091C137.709 200.706 137.845 199.919 137.845 198.737C137.845 197.685 137.688 197.086 137.386 196.945C137.162 196.779 136.897 196.695 136.595 196.695C136.204 196.695 135.574 197.003 134.699 197.612C133.157 198.935 131.865 200.31 130.824 201.737C129.793 203.154 129.084 204.789 128.699 206.633C128.657 206.8 128.636 207.06 128.636 207.404C128.636 208.904 129.162 209.654 130.22 209.654C131.22 209.654 132.49 208.904 134.032 207.404Z" fill="black"/>
<path d="M155.759 216.633C155.618 216.675 155.436 216.695 155.217 216.695C154.3 216.695 153.535 216.164 152.925 215.112C152.311 214.06 152.009 212.716 152.009 211.091C152.009 210.216 152.092 209.362 152.259 208.529C152.743 207.268 152.988 206.352 152.988 205.779C153.113 204.935 153.556 203.425 154.321 201.258C155.097 199.091 155.597 197.789 155.821 197.341C155.988 197.341 156.134 197.206 156.259 196.925C156.394 196.633 156.467 196.315 156.467 195.966C156.467 195.565 156.54 195.154 156.696 194.737C156.847 194.32 157.014 194.029 157.196 193.862C157.196 193.727 157.248 193.482 157.363 193.133C157.472 192.789 157.53 192.544 157.53 192.404C157.53 192.32 157.582 192.164 157.696 191.925C157.806 191.675 157.863 191.487 157.863 191.362C158.556 190.003 159.78 186.94 161.53 182.175C163.29 177.414 164.175 174.768 164.175 174.237C164.175 173.893 164.306 173.565 164.571 173.258C164.832 172.956 165.139 172.8 165.488 172.8C165.623 172.664 165.91 172.565 166.342 172.508C166.785 172.44 167.139 172.404 167.405 172.404L168.446 173.445C168.931 173.893 169.306 174.294 169.571 174.654C169.832 175.003 169.967 175.414 169.967 175.883C169.967 176.675 169.821 177.461 169.53 178.237C169.248 179.003 168.431 180.81 167.071 183.654C166.988 183.878 166.634 184.669 166.009 186.029C165.576 186.904 165.363 187.404 165.363 187.529C165.363 187.669 165.269 187.945 165.092 188.362C164.925 188.779 164.769 189.211 164.634 189.654C164.285 190.352 163.722 191.586 162.946 193.362C162.181 195.143 161.8 196.122 161.8 196.3C161.8 196.773 161.686 197.122 161.467 197.341C161.342 197.341 161.259 197.445 161.217 197.654C161.175 197.852 161.155 197.987 161.155 198.07C161.155 198.518 160.8 199.675 160.092 201.55L159.509 203.466C158.675 206.315 158.092 208.398 157.759 209.716C157.425 211.039 157.259 212.154 157.259 213.07C157.259 214.044 157.102 214.836 156.8 215.445C156.493 216.055 156.144 216.451 155.759 216.633Z" fill="black"/>
<path d="M172.605 214.529C172.464 214.268 172.089 213.919 171.48 213.487C170.865 213.044 170.563 212.773 170.563 212.675C170.563 212.508 170.459 212.258 170.251 211.925C170.053 211.591 169.876 211.294 169.709 211.029C169.344 210.685 169.584 209.544 170.417 207.612C171.251 205.685 172.376 203.398 173.792 200.758C174.053 200.497 174.397 200.039 174.813 199.383C175.23 198.732 175.501 198.357 175.626 198.258C175.626 198.091 175.688 197.935 175.813 197.779C175.949 197.628 176.11 197.55 176.292 197.55L176.813 196.487C176.99 196.102 177.844 195.164 179.376 193.675C180.917 192.175 182.126 191.164 183.001 190.633C183.834 190.065 184.73 189.779 185.688 189.779C186.74 189.779 187.647 190.086 188.397 190.695L190.167 192.216C191.485 193.315 192.235 193.945 192.417 194.112L194.834 196.3L193.73 199.591C193.324 200.773 193.126 201.893 193.126 202.945C193.126 204.612 193.589 206.169 194.522 207.612C194.73 208.102 195.022 208.477 195.397 208.737C195.772 209.003 196.261 209.175 196.876 209.258C197.844 209.44 198.334 209.919 198.334 210.695C198.334 211.669 198.152 212.398 197.792 212.883C197.443 213.357 197.032 213.664 196.563 213.8C195.855 213.883 195.365 213.925 195.105 213.925C193.824 213.925 192.657 213.602 191.605 212.945C190.563 212.279 189.647 211.164 188.855 209.591C188.673 209.331 188.438 208.852 188.147 208.154C187.865 207.445 187.709 206.961 187.667 206.695C187.36 207.128 186.855 207.695 186.147 208.404C181.631 212.961 177.969 215.237 175.167 215.237C174.193 215.237 173.339 215.003 172.605 214.529ZM176.209 209.05C176.917 209.148 178.277 208.362 180.292 206.695C180.511 206.518 180.756 206.31 181.022 206.07C181.282 205.82 181.568 205.565 181.876 205.3C183.11 204.3 184.068 203.461 184.751 202.779C185.428 202.102 186.115 201.273 186.813 200.3L188.272 197.945C187.824 196.977 187.423 196.331 187.063 196.008C186.714 195.675 186.365 195.508 186.022 195.508C185.147 195.508 184.048 196.289 182.73 197.841C181.407 199.398 179.834 201.753 178.001 204.904C177.511 205.695 177.115 206.523 176.813 207.383C176.506 208.247 176.303 208.8 176.209 209.05Z" fill="black"/>
<path d="M36.0242 265.17V247.399H40.7117V265.17H36.0242Z" fill="black"/>
<path d="M61.5545 247.399H65.9712V265.17H62.492L54.4295 255.087V265.17H50.0753V247.399H53.492L61.5545 257.441V247.399Z" fill="black"/>
<path d="M91.1273 255.128V264.045C90.1794 264.477 89.1169 264.811 87.9398 265.045C86.7732 265.279 85.57 265.399 84.3357 265.399C82.4034 265.399 80.7211 265.035 79.294 264.295C77.8773 263.561 76.7836 262.514 76.0232 261.149C75.2575 259.774 74.8773 258.144 74.8773 256.253C74.8773 254.436 75.2575 252.837 76.0232 251.462C76.7836 250.087 77.8617 249.035 79.2523 248.295C80.6534 247.545 82.294 247.17 84.169 247.17C85.445 247.17 86.6534 247.337 87.794 247.67C88.9294 248.003 89.8565 248.462 90.5648 249.045L89.1065 252.358C88.2836 251.832 87.4919 251.451 86.7315 251.212C85.9815 250.962 85.1742 250.837 84.3148 250.837C82.7315 250.837 81.5492 251.29 80.7732 252.191C80.0075 253.082 79.6273 254.436 79.6273 256.253C79.6273 258.16 80.0284 259.566 80.8357 260.483C81.6377 261.399 82.8825 261.858 84.5648 261.858C85.3409 261.858 86.1169 261.774 86.8982 261.608V258.316H83.8148V255.128H91.1273Z" fill="black"/>
<path d="M113.805 265.17L112.242 261.503H104.347L102.784 265.17H98.0758L106.388 247.399H110.097L118.43 265.17H113.805ZM105.867 257.983H110.722L108.284 252.358L105.867 257.983Z" fill="black"/>
<path d="M125.619 247.399H132.869C134.838 247.399 136.536 247.753 137.953 248.462C139.38 249.17 140.474 250.191 141.224 251.524C141.984 252.858 142.369 254.436 142.369 256.253C142.369 258.102 141.994 259.701 141.244 261.045C140.494 262.378 139.401 263.399 137.974 264.108C136.557 264.816 134.854 265.17 132.869 265.17H125.619V247.399ZM132.557 261.42C134.276 261.42 135.567 260.998 136.432 260.149C137.291 259.29 137.724 257.993 137.724 256.253C137.724 252.852 136 251.149 132.557 251.149H130.307V261.42H132.557Z" fill="black"/>
<path d="M151.275 265.17V247.399H155.962V265.17H151.275Z" fill="black"/>
</svg>
